<mxfile host="app.diagrams.net" modified="2023-03-24T02:55:10.577Z" agent="5.0 (Windows NT 10.0; Win64; x64) AppleWebKit/537.36 (KHTML, like Gecko) Chrome/111.0.0.0 Safari/537.36" etag="3E9pOiQ8ewKMPKLFD-kh" version="21.0.10" type="github" pages="3">
  <diagram id="CYxEf5SZH4w97EDfuLLY" name="SR단순">
    <mxGraphModel dx="1671" dy="2051" grid="1" gridSize="10" guides="1" tooltips="1" connect="1" arrows="1" fold="1" page="1" pageScale="1" pageWidth="827" pageHeight="1169" math="0" shadow="0">
      <root>
        <mxCell id="0" />
        <mxCell id="1" parent="0" />
        <mxCell id="g7sWkjGeHu26Rh71iulq-3" value="제목 없는 레이어" parent="0" />
        <mxCell id="g7sWkjGeHu26Rh71iulq-11" value="제목 없는 레이어" parent="0" />
        <mxCell id="g7sWkjGeHu26Rh71iulq-19" value="제목 없는 레이어" parent="0" />
        <mxCell id="M0eQ1IDOB_HOf2DSMLBI-16" value="동원Desk" style="swimlane;whiteSpace=wrap;html=1;strokeColor=#23445d;fillColor=#bac8d3;" vertex="1" parent="g7sWkjGeHu26Rh71iulq-19">
          <mxGeometry x="290" y="-230" width="610" height="170" as="geometry" />
        </mxCell>
        <mxCell id="Tj8dK4sY7soV5aq9boAc-7" value="" style="swimlane;whiteSpace=wrap;html=1;strokeColor=#000000;fontColor=#1D3557;fillColor=#bac8d3;swimlaneFillColor=#f0a30a;" vertex="1" parent="M0eQ1IDOB_HOf2DSMLBI-16">
          <mxGeometry x="450" y="23" width="30" height="147" as="geometry" />
        </mxCell>
        <mxCell id="QPUQD3V3ZuLYjLemgZ53-10" value="2" style="ellipse;whiteSpace=wrap;html=1;aspect=fixed;strokeWidth=2;fontFamily=Tahoma;spacingBottom=4;spacingRight=2;strokeColor=#82b366;fillColor=#d5e8d4;gradientColor=#97d077;" vertex="1" parent="Tj8dK4sY7soV5aq9boAc-7">
          <mxGeometry x="5" y="33" width="20" height="20" as="geometry" />
        </mxCell>
        <mxCell id="Tj8dK4sY7soV5aq9boAc-5" value="" style="swimlane;whiteSpace=wrap;html=1;strokeColor=#000000;fontColor=#1D3557;fillColor=#bac8d3;swimlaneFillColor=#f0a30a;" vertex="1" parent="M0eQ1IDOB_HOf2DSMLBI-16">
          <mxGeometry x="290" y="23" width="30" height="147" as="geometry" />
        </mxCell>
        <mxCell id="Tj8dK4sY7soV5aq9boAc-4" value="" style="swimlane;whiteSpace=wrap;html=1;strokeColor=#000000;fillColor=#bac8d3;startSize=23;gradientColor=none;swimlaneFillColor=#f0a30a;" vertex="1" parent="M0eQ1IDOB_HOf2DSMLBI-16">
          <mxGeometry x="130" y="23" width="30" height="147" as="geometry" />
        </mxCell>
        <mxCell id="QPUQD3V3ZuLYjLemgZ53-8" value="1" style="ellipse;whiteSpace=wrap;html=1;aspect=fixed;strokeWidth=2;fontFamily=Tahoma;spacingBottom=4;spacingRight=2;strokeColor=#82b366;fillColor=#d5e8d4;gradientColor=#97d077;" vertex="1" parent="Tj8dK4sY7soV5aq9boAc-4">
          <mxGeometry x="5" y="80" width="20" height="20" as="geometry" />
        </mxCell>
        <mxCell id="M0eQ1IDOB_HOf2DSMLBI-25" value="요청등록" style="swimlane;whiteSpace=wrap;html=1;strokeColor=#23445d;fillColor=#bac8d3;" vertex="1" parent="M0eQ1IDOB_HOf2DSMLBI-16">
          <mxGeometry y="23" width="130" height="147" as="geometry" />
        </mxCell>
        <mxCell id="sChz2REbi81YPV6OnzVI-2" value="" style="endArrow=none;html=1;rounded=0;strokeColor=#000000;fontColor=#1D3557;fillColor=#A8DADC;" edge="1" parent="M0eQ1IDOB_HOf2DSMLBI-25">
          <mxGeometry width="50" height="50" relative="1" as="geometry">
            <mxPoint y="107" as="sourcePoint" />
            <mxPoint x="610" y="107" as="targetPoint" />
          </mxGeometry>
        </mxCell>
        <mxCell id="Bxeq5vbsglcBER8blg_T-1" value="" style="verticalLabelPosition=bottom;verticalAlign=top;html=1;shape=mxgraph.basic.tick;strokeColor=#B20000;fontColor=#ffffff;fillColor=#e51400;" vertex="1" parent="M0eQ1IDOB_HOf2DSMLBI-25">
          <mxGeometry x="55" y="33" width="20" height="20" as="geometry" />
        </mxCell>
        <mxCell id="M0eQ1IDOB_HOf2DSMLBI-28" value="요청접수" style="swimlane;whiteSpace=wrap;html=1;strokeColor=#23445d;fillColor=#bac8d3;" vertex="1" parent="M0eQ1IDOB_HOf2DSMLBI-16">
          <mxGeometry x="160" y="23" width="130" height="147" as="geometry" />
        </mxCell>
        <mxCell id="Bxeq5vbsglcBER8blg_T-2" value="" style="verticalLabelPosition=bottom;verticalAlign=top;html=1;shape=mxgraph.basic.tick;strokeColor=#B20000;fontColor=#ffffff;fillColor=#e51400;" vertex="1" parent="M0eQ1IDOB_HOf2DSMLBI-28">
          <mxGeometry x="55" y="77" width="20" height="20" as="geometry" />
        </mxCell>
        <mxCell id="M0eQ1IDOB_HOf2DSMLBI-29" value="요청처리" style="swimlane;whiteSpace=wrap;html=1;strokeColor=#23445d;fillColor=#bac8d3;" vertex="1" parent="M0eQ1IDOB_HOf2DSMLBI-16">
          <mxGeometry x="320" y="23" width="130" height="147" as="geometry" />
        </mxCell>
        <mxCell id="Bxeq5vbsglcBER8blg_T-3" value="" style="verticalLabelPosition=bottom;verticalAlign=top;html=1;shape=mxgraph.basic.tick;strokeColor=#B20000;fontColor=#ffffff;fillColor=#e51400;" vertex="1" parent="M0eQ1IDOB_HOf2DSMLBI-29">
          <mxGeometry x="55" y="117" width="20" height="20" as="geometry" />
        </mxCell>
        <mxCell id="Tj8dK4sY7soV5aq9boAc-9" value="만족도 조사" style="swimlane;whiteSpace=wrap;html=1;strokeColor=#23445d;fillColor=#bac8d3;" vertex="1" parent="M0eQ1IDOB_HOf2DSMLBI-16">
          <mxGeometry x="480" y="23" width="130" height="147" as="geometry" />
        </mxCell>
        <mxCell id="Bxeq5vbsglcBER8blg_T-4" value="" style="verticalLabelPosition=bottom;verticalAlign=top;html=1;shape=mxgraph.basic.tick;strokeColor=#B20000;fontColor=#ffffff;fillColor=#e51400;" vertex="1" parent="Tj8dK4sY7soV5aq9boAc-9">
          <mxGeometry x="55" y="33" width="20" height="20" as="geometry" />
        </mxCell>
        <mxCell id="6nJu7Cn9TYpkHE85FTWk-3" value="요청자" style="rounded=1;whiteSpace=wrap;html=1;strokeColor=#23445d;fillColor=#bac8d3;" vertex="1" parent="g7sWkjGeHu26Rh71iulq-19">
          <mxGeometry x="190" y="-177" width="70" height="26" as="geometry" />
        </mxCell>
        <mxCell id="6nJu7Cn9TYpkHE85FTWk-7" value="접수자" style="rounded=1;whiteSpace=wrap;html=1;strokeColor=#23445d;fillColor=#bac8d3;" vertex="1" parent="g7sWkjGeHu26Rh71iulq-19">
          <mxGeometry x="190" y="-130" width="70" height="26" as="geometry" />
        </mxCell>
        <mxCell id="Bzmo5XfETdzLZSXSkB4d-2" value="양식" style="swimlane;whiteSpace=wrap;html=1;strokeColor=#666666;fillColor=#f5f5f5;gradientColor=#b3b3b3;" vertex="1" parent="g7sWkjGeHu26Rh71iulq-19">
          <mxGeometry x="610" width="340" height="498.36" as="geometry" />
        </mxCell>
        <mxCell id="Bzmo5XfETdzLZSXSkB4d-1" value="" style="shape=image;imageAspect=0;aspect=fixed;verticalLabelPosition=bottom;verticalAlign=top;image=https://s3.us-west-2.amazonaws.com/secure.notion-static.com/43f4925f-48e4-4845-bfed-52a522e2d9b9/Untitled.png?X-Amz-Algorithm=AWS4-HMAC-SHA256&amp;X-Amz-Content-Sha256=UNSIGNED-PAYLOAD&amp;X-Amz-Credential=AKIAT73L2G45EIPT3X45%2F20230322%2Fus-west-2%2Fs3%2Faws4_request&amp;X-Amz-Date=20230322T024430Z&amp;X-Amz-Expires=86400&amp;X-Amz-Signature=76f1e2eccf4436d0d33ba065d165036ab6ec92a5a727b56d61d418a8cda32776&amp;X-Amz-SignedHeaders=host&amp;response-content-disposition=filename%3D%22Untitled.png%22&amp;x-id=GetObject;" vertex="1" parent="Bzmo5XfETdzLZSXSkB4d-2">
          <mxGeometry x="8.25" y="30" width="323.5" height="458.36" as="geometry" />
        </mxCell>
        <mxCell id="Bzmo5XfETdzLZSXSkB4d-4" value="양식" style="swimlane;whiteSpace=wrap;html=1;strokeColor=#666666;fillColor=#f5f5f5;gradientColor=#b3b3b3;" vertex="1" parent="g7sWkjGeHu26Rh71iulq-19">
          <mxGeometry x="260" width="340" height="498.36" as="geometry" />
        </mxCell>
        <mxCell id="RqzgtR6rhyN8UyeZPWzu-1" value="" style="shape=image;imageAspect=0;aspect=fixed;verticalLabelPosition=bottom;verticalAlign=top;image=https://s3.us-west-2.amazonaws.com/secure.notion-static.com/8b848018-8652-49fc-b0d0-7850566c2891/Untitled.png?X-Amz-Algorithm=AWS4-HMAC-SHA256&amp;X-Amz-Content-Sha256=UNSIGNED-PAYLOAD&amp;X-Amz-Credential=AKIAT73L2G45EIPT3X45%2F20230322%2Fus-west-2%2Fs3%2Faws4_request&amp;X-Amz-Date=20230322T023051Z&amp;X-Amz-Expires=86400&amp;X-Amz-Signature=70ce75d2d4bee70a3c44dad33efde21786bf1ee302e874ceed7c8f8767e6a81d&amp;X-Amz-SignedHeaders=host&amp;response-content-disposition=filename%3D%22Untitled.png%22&amp;x-id=GetObject;" vertex="1" parent="Bzmo5XfETdzLZSXSkB4d-4">
          <mxGeometry x="28.049999999999983" y="34.68000000000001" width="283.91" height="429" as="geometry" />
        </mxCell>
        <mxCell id="QPUQD3V3ZuLYjLemgZ53-12" value="1" style="ellipse;whiteSpace=wrap;html=1;aspect=fixed;strokeWidth=2;fontFamily=Tahoma;spacingBottom=4;spacingRight=2;strokeColor=#82b366;fillColor=#d5e8d4;gradientColor=#97d077;" vertex="1" parent="Bzmo5XfETdzLZSXSkB4d-4">
          <mxGeometry x="136" y="3" width="18" height="18" as="geometry" />
        </mxCell>
        <mxCell id="QPUQD3V3ZuLYjLemgZ53-5" value="" style="endArrow=none;html=1;rounded=0;strokeColor=#000000;fontColor=#1D3557;fillColor=#A8DADC;" edge="1" parent="g7sWkjGeHu26Rh71iulq-19">
          <mxGeometry width="50" height="50" relative="1" as="geometry">
            <mxPoint x="290" y="-140" as="sourcePoint" />
            <mxPoint x="900" y="-140" as="targetPoint" />
          </mxGeometry>
        </mxCell>
        <mxCell id="QPUQD3V3ZuLYjLemgZ53-13" value="2" style="ellipse;whiteSpace=wrap;html=1;aspect=fixed;strokeWidth=2;fontFamily=Tahoma;spacingBottom=4;spacingRight=2;strokeColor=#82b366;fillColor=#d5e8d4;gradientColor=#97d077;" vertex="1" parent="g7sWkjGeHu26Rh71iulq-19">
          <mxGeometry x="747" y="3" width="18" height="18" as="geometry" />
        </mxCell>
        <mxCell id="sChz2REbi81YPV6OnzVI-3" value="작업자" style="rounded=1;whiteSpace=wrap;html=1;strokeColor=#23445d;fillColor=#bac8d3;" vertex="1" parent="g7sWkjGeHu26Rh71iulq-19">
          <mxGeometry x="190" y="-90" width="70" height="26" as="geometry" />
        </mxCell>
      </root>
    </mxGraphModel>
  </diagram>
  <diagram name="SR데이터수정2" id="74e2e168-ea6b-b213-b513-2b3c1d86103e">
    <mxGraphModel dx="1671" dy="1732" grid="1" gridSize="10" guides="1" tooltips="1" connect="1" arrows="1" fold="1" page="1" pageScale="1" pageWidth="1100" pageHeight="850" background="none" math="0" shadow="0">
      <root>
        <mxCell id="0" />
        <mxCell id="1" parent="0" />
        <mxCell id="uzHDUdc0_aoSdo2malCz-1" value="양식" style="swimlane;whiteSpace=wrap;html=1;strokeColor=#b46504;fillColor=#fad7ac;" vertex="1" parent="1">
          <mxGeometry x="570" width="340" height="498.36" as="geometry" />
        </mxCell>
        <mxCell id="ZS7XKxEIqem9FFSawJES-2" value="" style="shape=image;imageAspect=0;aspect=fixed;verticalLabelPosition=bottom;verticalAlign=top;strokeColor=#457B9D;fontColor=#1D3557;fillColor=#A8DADC;image=data:image/png,iVBORw0KGgoAAAANSUhEUgAAAUAAAAG8CAYAAACvwHzIAAAgAElEQVR4nO3df3AU52E38K9KYFCQZJ2Nk0o+h6BDh8F2MQIjp0UQjWLL2MVUZFRE0h+MEmogCbEndqzaJFGDnDnseJxo0gAluUn7vonwqwkak7Gp4HU0INJU2HJEjCGSOfFLnFpb+IQkLAZeeu8fyi57e7t7u3t7d3v3fD8zjKXbfZ59TtZ+9Tz7PHubF41GoyAiEtCfZLoBRESZwgAkImExAIlIWB/TevHOJw+kux1ERGlz4eVVANgDJCKBMQCJSFgMQCISFgOQiITFACQiYTEAiUhYDEAiEhYDkIiEpbkQWgTBLy3Bg/d8wvT+w6NXcfX6DZz+7ys4+t4IgkfOpbB1lClHnl2BubfPMr3/mQ+u4Or1/8Gp8Dj+78n38avfDTtWt9qhE++j8ae9pusyuqFBr/yZD65gxfeO2G5jtsnT+jQYke4EaVwxB088VA7PrOkAgMiV63jrTAQnw2P48Mo1AMDc2bPwZ5+6BQtKCpE/Y5q837/95hy+f+C9jLWdUmf72oXYUDVH/v7MB1fkP36SRXcWY0FpIRaUFsbs9+KB9wyD8IdfXIS1S0vl7/e9FcbxC6Oa+946awYeuueTWFBaGBOAALB6cQm+9dhdKCmeKb9m5ffyqVXl+IfPzkX+jGmYvHYDr/QMYXfXGQxFJhOWzXbSnSDCByAQ2xtU/5IpeT35eLHhXiz33ya/9va5Uaz5wW/T0k5KL2Uv6TsdJ3V7/cvKPPh+w70xPaqfdZ/Dt/ad1K17YMdD8h9To7olB59ejqEPJ+N+N72efLz+jb+Q/4AfHbiE9TuPJX5zfyT97v/w4Gmh/pjzVjgbhiKTWL/zGH7WffOXtWJOMV594jMZbBVl2rHBCFZ87wjePnezF7ehag62r12oW+a/Ll+1dIy9PRcw75PxQ9ahyCS6Tn0gf3/3HUWW6r3HW4QzH1wRKvyUGIA2fGvfSex7Kyx/XzGnGE+tKs9gi8gN1vzgtzgVHpe/X1fpxbIyjyN1G/UQX3x9AJPXbgAAPLOmo3HFHN19lVYvLkFJ8UzsNxiu5zoGoE1f//lxnPngivz93/2FuV86ym2NP+mVwyh/xjQ899hdjtWtNzkxFJnE0YFL8vcblpv7Xfzyyk8jcuW6sL0/gAGYlMN/uHlB3MpfXspdQ5FJnBq+2QtcUFIIryc/qTrNXGLZ1TUofz339lkJe55eT/7U5Zu3w4b75Tphl8E4YXfXmZiZwgfv/qTmUGVZmQdP1pbD94lZ8oxd5Mp1nBm5guf3/wHHBiOa9W9fuxCVvluxoLRQnph6alU5/nqZFyXFMzF57QZ6z47i6b3vGM7cbV+7ECvvmi1fpJ+8dgOnhsfx6tvhuPY2rpiDf6qLv3YlLY/Q2w7ETiBp7ae+2O/15OPpR/xYPOeWmLadHfkIe3su6A77GlfMwZqKUiwoKUTgtX4Ej5zD6sUl+NrnfPKM7KnwOLb98l3dn+2rT3wGFXOKUzKJ1d0/goo5xQCmeoEND3ht97KWlXng+fj0hPsdG4zg7XOj8nGfe+wuw/f13bULMXntBnZ3nbHVrlzBAEzCUGQSw6NX5VC7wzMzbp/taxdiXaUXZ0c+wvb9f8CvfjeMZWUePPfYXaiYU4xffu2BuBnDV5/4TMySG+Xr0i84MHVyLfffhuCXl+ChF4/GHdvryccvNt+PubfPwqET7+MLO9/EUGRSXoZRMac4JqQmr92A/5mDABCzNEg5sxg8cg4H33kf//z398ltGR69iq/+r76YsJH227f1ARR/fLocVJLVi0vw/OfvxtXrN/B/jg3h+wfekwNx7dJS/FPdQqypKI05iX/4xUWoXnC73C7lz1j5hwgAFpQW4ieNS/DIS7+J++OwenGJ3PaKOcVoXDHH0XWde/9zCF9/aJ78/cJSaxMTEmmZy9XrN0zt//z+P+CXX3sAwNT7Wlbm0f0DsHSuB71nR4VY8mKEAZgk5S/nzOmxgfXUqnJsqJqDMx9ciQmoY4MRrPnBb9G2eRmW+2+TT14pBKWT/vctn5NPdmkYtOXf+uQQ/dHf3oeS4plYUFqo+cse/PISzL19Fs58cCVm+cTXf34chTM/Ji/9efvcKC6NX8P41f83Ve6PYSCFo3RNSzIUmcRX/rUPv26qQv6MaRi+fFXzRBuKTGLm9Gl4pWcoJmCWlXnwUsO9ABATUEORSXz958dx4cOP8PWH5skz7NLP4+s/Py7/LKQAW1NRCs/Hp8vLOLyefDmcPbOm4/HquXHLUX53dhST127I699ODI3FtT0Z6lBR/yFT+6e6hbq9agAx15qNHBuM4FR4XO4FP1lbrrkkZvvahfDMmo6XO8W99ifhNUAHKRekej358sSI3izb03vfQeTKdQDaM4ajH12Tv/79+ctY84Pfygtsjw1G0PnOf8vbV8yfHVN2WZlHPhF+d+5y3LGV14wAoPGnvXLAAFMhODw6tVRj6dz460nKa11Sb0OtccUczJz+J3HDrJbP3438GdN0eyDfP/CePJuqNcN+afxazPcrvndEHmIORSbx/P4/yNvmfbJAs+1/s/tNHDrxPv5m95u6vSSnaI0MlPa9FcZ3Ok7G/Tt04v24Pz6J7O25IH+95NPFmtcfV941G6fC4yl/39mAAegg5V/qx6vnyr23vf85pLn/UGQS716c6n3kz5iGJ2v1l9JoLao9M3LzeOph1ur7SuSvte4yODYYkU+uklu0T1ApYPUmeH5//mawbqoui9u+pqI0LuSUwdx7Vv8EPHjiZrj/9TKv7n5aF/GVJ7Ze+BwbjKDxp71pCYHT/23cgzt+YRTBI+fi/jX+tBev9Gj/7ugJHjkn/x7mz5iG76rWIq5eXIK5t8+KCUqRMQBTpNJ3q/y10XWWQ+/ePNET9RTsmjtb+55RaTFusc5F9t1dZ+SQbKi8M277mopSuZeovDsGmAq6ijnFccOsL37mU/LX0q2GWpSTBsqetWiM7ibRo1ydoP7/Ii194b3sUxiASVLe/qT8S//p2R83Vf7gO+/LX/+pTk/Mjl/13Rx2/9mnbtHcp/jjMwAAZ0c+0tw+FJlE79mp3qN0nVGyfe1CjH50Ddv/ONzMnzEt5s6HTdVlmsMs5X2ziUjhCkz1XLKFuresvH/YjshH1y3t/619J+VLK8r/L1z6Eo8BmAT1takOxS+W8sK30TowZe9w1OIvuhHpgjigvRZtWZlHHqIrh5tqyh6ccpi7pqIUPzt6Dr/63bAcVGsqbt7gv9x/m+Ywa+b0m79yt86aYfgelBNMvzur/WEBbvTg3Z+Uv568diPp3padZTrKkJP+v3DpSzwGYBIeU/RKznxwJeYTQJTXAx+619zHbjkZgMDUXQlnPriC/BnTsG/rA3IPrnHFHPzob+8DMHUB3miN2rHBiPxepMkQqfcnndjqa4Xb1y7E1ev/o3niK3vJZpeHTF67kTXLNbyefCz59M2lSso7NNLpW/tOxtwe99Sqciz334ajA5ey5meZDgxAmxpXzIkZ/r6oChHlia7sEagph5U9oQ8dbOFU7/LFA+8hcuU6Rj+6jl9+7QFceHkVmh6dj9GPruM7HSdjZn71SLPY0om0pqI0ZmZbebI1VN6JlXfNjrlBX0k5HLzHaxyA0hBdeWeF23137cKYj0z7to1reEZefeIzpu8vVoav9LFX6tl/0XEdoA2rF5eg6dH58vc/6z4X9/lvu7oGsdx/G/JnTJOXI2j95ZWWr0SuXLd1wTtRO19quDduEbJV3z/wHv7uL+bAM2s6/uGzc3H1+v/E9Rp7z45iuf82LCgtxOS1G3jx9Tc16woeOYdN1WUoKZ6JkuKZuouQvZ58eYiuXNbilNWLS1BXUYpdXYOOzQRvX7tQXls5ee0Gnvvlu472tp5aVY6SW2aabu+3952UfwfzZ0zD2+dGufRFhT1Ai55aVY6XGu6V/8rrfe7bscGIvIQhf8Y0/PPf36dZnzSM/sFB5xelPv/H9XbKiRa73jozdeLkz5imeRFdea3w1PC48a15+/8g9xg3VZdpXiOVlm8cOvG+4yettBD7wXs+gf/9+P1J36sLTH2unrSgffLaDXxj7zuGH4oq9W7NWr24BP/w2bkxaz8TUd+XzMmPeML3ABtXzIlZKjDvk7PQuGIOTgyNySfesjIPVt9XEnM/rZlP/pWCcUPVHFTMKcbBp5fL96cuK/Og5fN3409vmYkfHjwd1wtavbgkZlZ4+9qFcUGrnHS4x1sUczfI6sUlcg/qt9/+rObdBBcjVzF57QZOhscS3qv67X0n8eA9n9DtqUrXCufePithj036mb3UcC9Kimdi39YHsKtrEMEj5+D15OO7f+xJaX04rdeTHzN0XlNRGvezU85G/+kt8b3Me7xF8h+w/BnT8NC9n4ir44dfXBRziUO6jHHwnfflcF+9uASfW/iJmNvz3j43iq/8a5/uHwDpdj/l7XzK/49qt86agar5s+U7X6xOYEi3xw2PXuXSFw3CfiK0nWeCjH50HafC4/j5b89b6pWsXlyCL6/8NObOniX/4g+PXsWJoTF8e9/JuJPF6HkP3+k4ieXls3XbrgwN9b3DRs58cEW+V1jPq098Br8/f1l3qP7UqnI8trjE9DMlpE/YNvshEUb/zw6deB9H3xvRvaVM/awLvQ9DsPNMkMhH1/H785cTfpx8ss8EsfvBDYn+v4mIH4kvAOnj0qXh622FM+I+WWTm9Gly+Bg9DoAol0gBKPwQOFd5PfnYt/UB/ODgewmHPl5PPoJfXqL5ketEuYyTIDnqF5vvB2D8UeqSocgkhj6ctHzHAVG2YwDmoO1rF2Lu7bPiPp5Lj9eTj6VzPfjJ4bMpbhmRu3AInIOK8qeu83lmTcfvWz6HV98O41d9w3GTCl5PPh6vnot1lV680jNkOKNNlIs4CZKjpA9bTSRy5bqp64REuYSTIDlu/c5j8rNI7vDMjFl+EblyHf91+Sp6Qh9yaQQJjQGYw44NRjQ/Ep2IpnAShIiExQAkImEZDoGlC4VERLlAPcHLHiARCYsBSETCYgASkbAYgEQkLAYgEQmLAUhEwmIAEpGwGIBEJCwGIBEJK2MBODg4iN27d+Phhx/GvHnzkJeXF/Pv4YcfxpYtW7B3715cunQpcYWqutX1qf8NDsY/IPrWW29FXl4ejh/Xf1j40aNHE9at9V4kDQ0NyMvLw+7duw3fw+7du5GXl4f777/f0nsHgL179yIvLw/z5s2zXJZIJBkJwBdeeAE+nw+bNm1CWVkZWltbEY1G5X99fX3YsGEDPvzwQ6xfvx7l5eV44YUXTNdfVlYWU5/Wv7KysrhykcjUB4aOj4/HbZMsX75cs77a2loAwI4dO+K2/fu//7tcfnR0FABw+fJlw/cgbX/rrbdMv2/J+fPnAQChUMhyWSKRpP3jsLZs2YKdO3fC4/Fg//79WL58edw+ixYtwqJFi9DQ0ICvfvWreOyxx/DMM8/g7Nmz+PGPf5zuJpvS2dmZ6SYQkUVp7QHu3bsXO3fuBAB0dXVphp/a8uXL0dXVBQDYuXMn9u7dq7vvCy+8YHl4aqVnacavf/1rR+sjotRJawC+9NJLAIB169Zh0aJFpsstWrQI69ati6lDyze/+c244adyGNjd3R23/Zvf/KbNd3PT0aNH5a+PHXP+A0ithvozzzzjeBuIclFaA1C6nlVRUWG5rFTG6jWxcDgsf/3uu+9aPq4Zv/jFL+SvI5GI3EvdsmVLXDjZGSonup6p/rdjxw7H3htRLsv5ZTD/8R//IX/d0dHheP3Hjx+Xh/XSRMi2bdtw6dIl/PjHP9adLCGizEtrAC5duhQAcPas9efPSmWkOsw4fvw4AoEAfD4fgKmJCqPemVWXLl3C5z//eQBT4bdt2zYAU7OvX/nKVyzXR0TpldYA/MY3vgFgajLDaK2dmrKXJdVhpkx1dTUikQgeeughPPvsswCA9evX44UXXsD27dvjemdWHD9+HOXl5QiFQvB4PNixYweWL1+OtrY2AMArr7yChx9+2PIaRiJKn7QGYENDAzZv3gwAqK6uNhWCUpABwObNm9HQ0JBw/y1btuC+++5DJBJBbW0ttm/fjueff16+NvbMM8+gvLwcW7Zsweuvv27pPVy6dAnPPfecXP/SpUvR1dUlT+o0NDSgr68PPp8PnZ2dKC8vN5y51nPLLbfEHNMKqbfs8XgsH5dIKFEN3idej3qfeF1rkyN27NgRBRAFEN28eXP0tddei9keCoWibW1t0XXr1sn77dixw7DOUCgU9Xg88v4+ny/a1tamud+zzz4bs293d3c0Go3Gfa/F5/MZ1i8ZGRmJ7tixQz7Os88+G41Go9Ha2lpT72dkZETe186/pUuXxv1ciUSnzra8aDR+7Cc9OCSVD0UaHBzEoUOH0NHRgdOnT8fdtVBbW4vi4mL81V/9FR588EHcdtttCevcvXs3Ll++jNraWlPLbI4fP47CwkL5rpBbb70VkUgEfX19lpbpWNHQ0IBXXnkFu3btwuOPP56SYxCRtrhsM5OSqbBr164ogOi6det095F6gLt27UppW7KR1BM16oUSUSx1tqX9VjiJdK+rdG+sFrP3zWq5dOkSDh06hCNHjmBwcFBz/Z3H48GyZctQVlaGFStWmO5pKr3++uv4zW9+g97eXhw7dky+n1hJ6s1WV1fjwQcf1LwP2Sqpxyzd90tE1uXkOsC9e/eivLwc69evx4cffogNGzagr68vbtZ3//792LBhAwDIH7pgdsLi+PHjmDdvHh599FEcPHgQdXV12L9/f9wx+vr6sHXrVvh8PvzjP/4jfD4fnnvuuVS+fSIyKWM9wFQ5evQo1q9fDwBoa2sznDWW7kVuaGjAX/7lX+LRRx/F+vXrUVRUhEceeUS33KVLl+QlNps3bzb8gAbpgx0eeeQRfOlLX8LSpUvxve99DwDw/PPP23mLROSQnOsBKu/8SLRkRkkZeCdOnDDc99SpU/JQ9wtf+ILpY5SVlWHZsmUAgN7eXtPliCg1ci4A//zP/1z+2sr6O+V6wHvuucdw3wULFshr7JT3AScyODgof1jCkiVLTJcjohQxM1OSrM2bN9tez6b3T1pXp6WtrU1ef1dbWxtta2uL9vX1xe3X3d0ds97Q4/GYnnHu6+uLWRO4a9cuzfWDfX190ddeey26efPmmDWBIyMjum13+me1dOlSU++JKNe5Zh1gquX6LDARWafOtpwNQCIiNXW25dw1QCIisxiARCQsBiARCYsBSETCYgASkbAYgEQkLNP3Ag8NDaWyHUREKeH1enW3WfowhNmzZyfdGHLWzJkzM90EoqzFITARCYsBSETCYgASkbAYgEQkLAYgEQmLAUhEwmIAEpGwGIBEJCwGIBEJiwFIRMLKmecCNzc3m/pe/bqVuu2UJSL3yokeoDKgkg06hhyROLK+B6gVeFKQMdD0hUIh7NmzR/5+48aN8Pl8mtv9fj8aGxtNlw0GgxgYGAAw9fzj+vr6hO1Rlkm2PivtU783LT09Pejo6EBdXR0qKysN9wkEAoZ1tba2IhwOA0Dcvspt1dXVqK2tNayLkpcTPUCyrq2tDYFAAIFAAH6/PyYwAGDPnj2oq6uTT9L29nZTZdvb23HHHXcgEAhg48aN6O3tRSgUMmxLe3s7JiYm5DLJ1melfQMDAzHvTattHR0dhscDYGqfYDCIgoICBAIB1NXVoaWlJWZbZWWlvK2rqythfZS8rA9AvR6g+jW6qbOzE9u2bZO/X7lyJYCpXgwwddKXlpbKvZ2VK1eit7fXVNmKigq55+Lz+VBQUJCwPb29vfKxfD4f/H6/HEpW60vUvqKiopj6/H4/hoeHdeurr6/Hxo0bDY/Z2tqK6upqw31CoRAGBgbk9lRWVqKoqEh+XvXKlSvln4FeL5Ocl/UBCDh3DVAU6qGVNDyUPu9xeHgYJSUlcdt7enoSllUPNefPnx/zmpoUTMqTvrCwUA4lq/Ulap96e2FhoamQ1tPe3q4bWC0tLWhtbQUAnD59GgUFBTFtLygowMWLF2PaCZgLVHJG1l8DlCQKPDPbq6qq0N3dLdy1w56eHvj9fvkkHBsbw/z582P2KSgowOjoaMKy0mvSkHDJkiWGxx4dHY0LoKKiIvT399uqz0z7lIaHh/Hoo49aqlNZNzAV3lJPTknZEx0bG0NRUVHMdmXQA1O9V2noq/75U2rkRACaDSuRQs2Knp4ebN261bGylZWVcihIJ7SZiRA9ydRn9N56enpQUlJi2KO0W7cdtbW1qK2tRXt7u/w+ORGSWsIEoNGssPRaTU0NampqhJpB1hrCFRUVYWxsLOa1iYkJFBcXJyyrVFtbi4sXL2J8fFzeX7qWCEzNdBYXF2NiYiKmnFZvyWx9ysBI1L5kAqy9vR3hcBhNTU0xrzc1NWnOFqt7tQAwPj6uOfyur6/H8PBw3P8Dcl5OBCBgPgTpJmnYpj5ZS0pK5JABIM+6KvfTK6tWWFgo11VfX6/Zc+vo6EAoFJJ7YuPj4zHXIK3WZ6Z9LS0tMUNUq9THlnqnestg5s2bFzezOzExoTvUTea6JJmXk5Mgev8SlTV6Ldd0dnbi4sWLMSdxMBgEMHVyDwwMyMH32muvxVx7Myqr1tvbK8986lmyZAkOHz4MYKpXNjAwoBtsZupL1L6WlhasX78+Zn/pel6qqGe3Ozs7MTY2pjnElWaMk7lsQObkTA/QDhGCTotyIbByCKeceVSux/P7/fLJmKhsS0tLzJA20cJgYCpwg8GgXJ9y2YnV+ozap1wgrVwbWFBQoNsbVF537OjowPnz500HU0tLC4qKiuRhdmNjI1pbW+V2Kd+Lsq3SWkFKvbxoNBpVv3jnkwcAABdeXiW/NjQ05OrHYqZyIsTNQcnHYhKZp862nOkBpjKc3Bh8RJS8nLgGSERkBwOQiITFACQiYTEAiUhYDEAiEhYDkIiExQAkImExAIlIWAxAIhIWA5CIhGXpVriRkZFUtYOIKCW8Xq/uNvYAiUhYlnqAbv40GFHx02CI7GMPkIiExQAkImExAIlIWAxAIhIWA5CIhMUAJCJhMQCJSFgMQCISFgOQiITFACQiYeXMc4H1NDc3o6qqCt3d3fL36u1W6hJBU1MTAoFA3Nda+0m09jEq60RdyjJKWvuZbYde28z8PCj75EQA6gWTU+GWi8GnFR5WTmx1ECQTDHbrMgpmO21R/0ySDTq7fwD0MHidl1MB2NzcjFmzZuHpp5/OcIuygzp0zNI6sQOBgK3gcbKuZGSyZ8deZebkRAA6IRd7eblGCulEwc0wIbOED0Ct4FP2KCmeVg8tHb0Yp6/tpZLUNrNt5BA4M3IyABlc9lgZBksnt/J7OzIVplrU78fKz0Ndh9R+ZT1G74nhlhk5E4DK0NP72qiM2e25HK7KmU4r+9vdrtzPTpiaCSkrwaJ1LRIw9/MwCjl1PQw798iZAAQgL3dpbm42FVS5HGap5vSQzW6YuiVMkpm1NtvbdMt7zSU5FYCUPmava7nh+lc2BEc2tDEX5UQASj25mpoa1NTUyD1AJ3uB7C3Gc2r4mUyYOjVcJzHlRAAmw2xImg1UUTg9UZFMmCZqh53JDBJD1gcgl6zY55ZgcMNyFr3rcE4N4fXqTKYsJS9nAjDRaxQr2RPJyQv3ydblVJAns5Qn3cckZ+RFo9Go+sU7nzwAALjw8ir5taGhIT4X2IX4XGAi89TZxo/DIiJhMQCJSFgMQCISFgOQiITFACQiYTEAiUhYDEAiEhYDkIiExQAkImFZuhVuZGQkVe0gIkoJr9eru409QCISlqUeIO8Fdh/eC0xkH3uARCQsBiARCYsBSETCYgASkbAYgEQkLAYgEQmLAUhEwmIAEpGwGIBEJCwGIBEJK+ufC2yG3nOC1Q9Vt/M84Vx/MLvVh5Yr99cqq/cMX639nHhmrtPPG1Y/1FyrrLKc3v7JvL9MPUg+G9ucSFYFoFHI2N1m93jJ1OsmeierlXJWy+qFopUHnPf09OD8+fOor683bKPTJ2yiOtXb7fwB0WKmDrM/P7t/lMwe2+rPPJk/UsnKmgA06mk1NzfL//TKJao30bZc7OnZPVlT9ddc3RbRJPtztVvWqAds5/fB6vtIVe/fjKwIwEThowxA9T65HmJ2af2SBQIB1w5V7JDej5n9UindYa536SEV7zPbf4+yIgCd0NzcjKqqKnR3d+ONN95Ad3d3pptEKqkICrtBoBeedk5q5XU/chchAlDq8dXU1KCmpsby5IeZHiN7lzfZPdHdNgTO1ESDXjvc8DOR2pCqn430BypdPcisCECjIa60Xflf9etaXxvVp0XqPdq91iiSRCdsOk5ko2OYmd1NRO/kVPccrZ7ERvtb+blq7WMUXmZ7u6kMPmX9yp9jKoMwKwIQMJ7okLabec3MNkqddPWqnJxMSPaifrpk4xIVo5BTB34q2pg1Aaik17Nzoj69bcrhs5WeI9nj1gvobhiG5hKz12NTJSsD0Cor1/AoPRIFiVO/9HaPo9crMjNUNlOW3CHnA9DM5ESiJTTJXj90I60LzekaCpk5jhNtceo4Rtf77MqVMMzk75ETXB+AZq/tpWpYnM0hl4jdC/ZOLhGhmxKtW0x0B4rVY5k9bqJj2/09SqbNTsnKALRa3kxvzWgG2ek2uYnTdw+YLZuOIXAyx0lmEXWyZe1I9ueVifJu+IOZF41Go+oX73zyAADgwsur5NeGhob4XGAXEvW5wGbuBSZSU2cbPw6LiITl+iEwkZbKykpUVlZmuhmU5dgDJCJhMQCJSFgMQCISFgOQiITFACQiYTEAiUhYDEAiEpaldYAjIyOpagcRUUp4vV7dbewBEpGwLPUAeS+w+4h6LzCRE9gDJCJhMQCJSFgMQCISFgOQiITFACQiYTEAiUhYDEAiEhYDkIiExQAkImExAIlIWGl9KFKiZ+/qPYzcynN47TyzNxUPQdd7eLvyWLozdmIAABF3SURBVG54+Lrd59fqlVXu29TU5IpnvxLpSVsAqk92sw8s16rD6ja9Nthhpg43BJsZyQSUXlk3hV5raysKCgrQ2NiY6aaQS6UlALUCQRmAbg8Kcl4oFMKePXt0t1dXV6O2ttZ2/cFgEOFwGH6/33YdlPtc8VzgXA1A6X1VVVWhu7s7w62JFwgEkhoCJ8Pn8yEQCCAYDAJATC8tGAyiq6sL/f392Lp1q636Gxsb0dra6khbKXe5KgATBWGmg7K5uVkOMzM9V+X2mpqauNfcQB1uZoeweuHpRFg2Njaivb0dvb29aG9vR319fdJ1EmlJ2xBYPdy1cp0s06GhDrKamhrXTGJkUiqv9dXX16O/vx/9/f3ya52dnejq6gIAFBQUYNu2bTGv+/1+FBYWoqKiAj6fL6Y+KVABYOPGjXHbSUxpnQRR95rSGRxWe29SGa2vld/rhbrWMaqqqpJ6D04yGvqamd1NxIlwLCoqQjgcBjAVchcvXpTrbWlpQTAYRGNjI958800EAgE5CCsqKuLq6u/vR11dHSorK5NuF+WOjC6Dsbo93ZLpneq9Lg2FMy2ZgLI7bE5Gf38/wuFwTPhK4TgxMYHOzk7U1tZqTpw0NTWx10eaMrYMxuw+yazrU3+vHr5mOnAzffxUMNM7NGtsbAylpaXy90uWLNG8HlhdXY2uri55GKycUBkYGAAAnD59mgFIcVwxCWIkUQ/LrSGS6sXbTkkUWEaLoLW2WR0q62lvb8fExATuv/9++bXx8fGYfaQhsNTz6+npQUdHR8zEid/vx913342Ojg7MmzePIUgx0h6A6T7ZM70GMdnF26lkZuhqZh+97XaHxcFgEAMDA/D7/fKQdv78+ejq6pKHuqFQSN6/paUF27ZtQ2VlJc6fPx9XX2VlJd599120tbXJEydEgMsC0OlASKaXmK4yolIvhFb3FtUTFrW1tRgbG5OHuspZ4KKiIrm89Hpra6t8jTAYDKKwsBATExNoampKepE15Y68aDQaVb9455MHAAAXXl4lvzY0NJT0YzGdXPLi5BA4XfcCO7GvWrKPxbQ7BDZTNlF5onRTZ1taA5Ccx+cCE5mnzjZ+HBYRCYsBSETCYgASkbAYgEQkLAYgEQmLAUhEwmIAEpGwGIBEJCwGIBEJy9K9wCMjI6lqBxFRSni9Xt1t7AESkbAs9QB5L7D78F5gIvvYAyQiYTEAiUhYDEAiEhYDkIiExQAkImExAIlIWAxAIhIWA5CIhMUAJCJhMQCJSFhpfzB6qug9W1f9zF/lfnrPA9YrwwefE+UW1wWgUcjY3ZZqbm0XERlzVQAa9bSam5vlf3rlEtWbKtkack1NTfLXGzduxOHDh9HY2Ij29nb09vZqlqmrq0NlZWXMa62trQiHwwCAJUuWoL6+Xt7W09ODjo4OAEBBQQG2bdsWU1a53WpZLUb1qdsaCARMl1WWk5SWlmLr1q3y98FgEOFw2FQ7yR1cE4CJhpnKANQbspqpx+jYZl83u93uvunQ2toac5K3tLTI2+rr61FfX4+mpqaYwGttbZUDQnotGAyisrISlZWVcoAUFRWhtrYWoVAIPT09ctC0traivb1dPmYoFEJHRwc2btwIn8+H1tZWdHZ2miqrxag+qa0FBQUIBALo6elBS0uLHFZGZXt6euT3KAkGg7jjjjvk71taWjAxMYGCgoIk/q9QurkmAJ3Q3NyMqqoqdHd344033kB3d7fpclrfmwnlbBUOh2NO6G3btiEYDBqWqaysREdHB0ZHR+XX7rjjDrkeKQQvXrwob1f2kEpKSmLqO3z4MPx+P3w+n1z+0KFDcmAZldViVF8oFMLAwAA2btwY01Yp5IzKzp49W35dMjAwgMbGRvn7bdu2ob29Hf39/QnbSe6RMwEohVFNTQ1qamrSOoGRjdcACwoK0NHREXNyK09oLYcOHQIAOaDUX0v1FhYWAkBMaPT09KC/vz9meBgOh3H//ffL38+ePRsTExMIhUIJy2oxqu/06dMoKCiIqbegoEAOa7NtAYDOzk74/X7DtlB2cE0AGg1xpe3K/6pf1/raqD71PnrHM9Nuvf0THT+T1q9fjz179mDPnj0A4q+HSTo6OuRhr9b1PzWta2B6w8OJiQkUFxfL30tBMzIyIn9tZWhpVN/Y2BiKiopi9i8sLMTw8LDptkguXrwYM/yl7OWaAAQSB4bVoDITPG4Mp3Tw+XwIBAIIBoMYGBhAU1MT/H5/XC+wrq4Oo6Oj6Orqihn6auns7IzpRUmkQGxqaoq57mZGMmVTRT38pezlqgBU0uvZOVGfk+yEtptIJ7IUhMpJA0ltbS36+/vR1dUVt00SCoVw8eJFw2Coq6uTe5PA1BBUGaqhUAiA9qMXlGVDoZDccwVuzsYa1Tc6Ohp3fW58fFzuWZptC4e/ucW1AWiV3d6eE9cIk52FzoTW1taYSYbGxka0trZibGxMc/+tW7eiqakprpykra0tYe9MHSalpaUxxxsZGYm7TqdVVuq9qiWqr6urK2b/iYkJzJ8/31Jb+vv7E14GoOyRE7fCKUNH759yPzv1uz3QrAqHw2hvb5e/D4VCCIfD+NSnPqVbpq6uDuFwGK2trTGvNzU1xYRfe3u73INSOnz4MJYsWSJ/v3Llypj1hocOHdIcQmuV1WJUn8/ng9/vl99zZ2cnxsbG5B6tmbaEQiGMjY0xAHNIXjQajapfvPPJAwCACy+vkl8bGhpK2VPh7ISL1V6X2dve7Bw/lWUSsftUuGAwiMLCwpiTXprkUC+EVi74lYbKwNSwcWJiIq5uaX91PdXV1XFDaL3Fx2bKaknVQmipTQA01yKqF0pL6wnJXdTZ5ooAdEIyEx5WZ3zdhI/FJDJPnW1CXQNMRVkiyl45cQ2QiMgOBiARCYsBSETCYgASkbAYgEQkLAYgEQmLAUhEwmIAEpGwGIBEJCxLd4KMjIykqh1ERCnh9Xp1t7EHSETCstQDdPOHIYiKH4ZAZB97gEQkLAYgEQmLAUhEwmIAEpGwGIBEJCwGIBEJiwFIRMJiABKRsBiARCQsBiARCSvnH4upfvC51n5OP1PY6kPb3aapqUl+aLjy62TqcWPZpqYm3W1OvH8rtNqiPG662iEa1wWgUVDY3WbmeInqlv45dVw3UJ90Vk8wZXkrZfWCJ90neCoCxu57Y7hlhqsCMFEvzW4IpSKkkuk1ukGyJ7y6vJVel9tOdqOeoNV69N5bom163PazyjWuCcBEPTFlAKr3ycSQ00zoujkAk6F1MgcCAVeEm9QGq21RlrETiImOZ9QmDnUzxzUB6ITm5mZUVVWhu7sbb7zxBrq7u02VMRNWVq8BZuO1v2wmhZYUHsogMwoUvTBX15sO6vBO57FFlTMBKAVNTU0NampqTE1+qMvaPaa6B7pr1y5s2rTJVp2Zku4TXU056WCnLqOeld4+6vDLZC9WeVytdjAMU8M1AWg0xJW2K/+rfl3ra7O9u1TItp5fOk+2RENFK20wE1Za+xgNR+2EYKJyetv0wtktlxRynWsCEEg8HLU6AZKKyRG9kFVS9v6yLQhFYSaE7dRpdRY4Fe0g81wVgEp6PTsn6jM6htUJlUzMQNMUqz1VO4HiRBknetQMw9RwbQBalallKdm+HCab2VlyorWvnWM4zS3tEE1OBGCyi5mz7biZpneRPttOUjNtTsf7cks7ROSKADR7bc/pYbHI9K5XmT3J1OXtlrN7fDdRvx+t92f3rhlKLdcGoNXyTqzls9qOZI+bacmeiMlMFriBmbV2dmeZM9EOsi4vGo1G1S/e+eQBAMCFl1fJrw0NDfG5wC7E5wITmafONn4cFhEJiwFIRMJiABKRsBiARCQsBiARCYsBSETCYgASkbAYgEQkLAYgEQnL0q1wIyMjqWoHEVFKeL1e3W3sARKRsCz1AHkvsPvwXmAi+9gDJCJhMQCJSFgMQCISFgOQiITFACQiYTEAiUhYDEAiEhYDkIiExQAkImExAIlIWK54LrDE7MPQzT5nV7m/XlmjutRlnDxutmhqarL9TForZa3uK9Eqk0ybSSyuD0C75aqqqkyXs3PcRGGdLbQeyJ0oPPQe4p2O0FGHG8OOkuGKADQTHHZ6at3d3Q60zlx7pN5etoWgnfDQK2MnjKQwDQQCMV+brV8qxxAkO7IiALMpWLKlnYB+Tw5IbW9ObwgrfZ1oiEvkFFcEoERvWOmW62hm2pFNYZ2poWSi4zD0KF1cE4Ba4dLc3Ixdu3Zh06ZNjtSdrGwJtlylNdzl8JeS4ZoANOLENUKj3qWZ64u5TD0UNhoaG+1jJojM1G1Up/JaodljEulxTQDqhZGy95cojKqqqtDd3W1pGOp0wGVrYCp7V+oelloyvS4nAouhR05xTQAC2RsedtcLuoEyzDijSqJxTQA6sSavpqYGNTU1aG5uxhtvvJHy45J9iYbCTi61IdLjmgA0I1MhZWUNYjbJ1Lo6M/VnephNYsiqANSSqQDSukUvmyQbMHZ7cERu4poAtHInRaLwsXIniJPHzSZGAWUmvJIJuGQC1ExZo/JESnnRaDSqfvHOJw8AAC68vEp+bWhoiM8FdiE+F5jIPHW28eOwiEhYDEAiEhYDkIiExQAkImExAIlIWAxAIhIWA5CIhMUAJCJhMQCJSFiWboUbGRlJVTuIiFLC6/XqbjMdgEaVEBFlIw6BiUhYDEAiEhYDkIiExQAkImExAIlIWAxAIhIWA5CIhMUAJCJhMQCJSFgMQCISFgOQiITFACQiYTEAiUhYDEAiEhYDkIiExQAkImExAIlIWAxAIhIWA5CIhMUAJCJhMQCJSFgMQCISFgOQiITFACQiYTEAiUhYDEAiEhYDkIiExQAkImExAIlIWAxAIhIWA5CIhMUAJCJhMQCJSFgMQCISFgOQiITFACQiYTEAiUhYDEAiEhYDkIiExQAkImExAIlIWAxAIhIWA5CIhMUAJCJhMQCJSFgMQCISFgOQiITFACQiYTEAiUhYDEAiEhYDkIiExQAkImExAIlIWAxAIhLWx8zumNd6OZXtICJKiejWW3S3sQdIRMJiABKRsBiARCQs09cAyT6jaxBqWtda9cor95X24bXaWG75uSTbDre8j1zDAEyxVP3iR7fegujWWyzXayZMzeyvV1Zrf622X7oaxex/GdM9XqL3ZfRzMVPeqL16rPxxMtuGZMtTchiAglKHVqIwtXIyW63bqHyqWQlKrfdh9IfDzPtOtjwlhwGYYnmtl+VfZrP7p5uyjU73VM3WzSEeZQIDMA2SGaYZBaiTYeFECBrVbSTT4efmP06UWgzALJANJ57dAHXqGqnd46Q7fDMd9hSLAZhCiU7ORBMSZk/uHx2/Zq1hNpiZPNHqraZ62KsXaIn2yxS3tIOmMABTKNlfdqNZR/W2ry6akdSx7LQl0X7KMFSXv21mHn50/Bq+umhGzl3s55KX7MEATCOneydWlnBkgrInqxVyXzs8ia8dnszojGc2TFJR6jAA08BoSGjUS0ok0fq7bJHKCRizx1dKpgfG3l92YQCmWKJf6ES9JHUdqToxMn3iZjoEk2X2umeqypM9DEBybDJCK8DsLvkxs4A4HcuDjKiPnexdOQy+9GMAppj6RDWatXRyNjQRqyefmVu29ELJStushmAykp2lT8UkF6UXAzAN1MNcve1G5c1eqHc6NFKxf6qDzSwGEDEA0yidPTya4pafG3uL7sTPAyQiYTEAiUhYDEAiEhYDkIiEZXoSJJvvNCAi0sIeIBEJiwFIRMJiABKRsBiARCQsBiARCYsBSETCYgASkbAYgEQkLAYgEQmLAUhEwmIAEpGwGIBEJCwGIBEJiwFIRMJiABKRsBiARCQsBiARCYsBSETCYgASkbAYgEQkLAYgEQmLAUhEwmIAEpGwGIBEJCwGIBEJiwFIRMJiABKRsBiARCSsjxltvPPJA+lqBxFR2rEHSETCyotGo9FMN4KIKBP+P/ahvRHdanGZAAAAAElFTkSuQmCC;" vertex="1" parent="uzHDUdc0_aoSdo2malCz-1">
          <mxGeometry x="10" y="40" width="320" height="444" as="geometry" />
        </mxCell>
        <mxCell id="dy_PYW5bkfk8av2Xu108-2" value="2" style="ellipse;whiteSpace=wrap;html=1;aspect=fixed;strokeWidth=2;fontFamily=Tahoma;spacingBottom=4;spacingRight=2;strokeColor=#82b366;fillColor=#d5e8d4;gradientColor=#97d077;" vertex="1" parent="uzHDUdc0_aoSdo2malCz-1">
          <mxGeometry x="130" width="20" height="20" as="geometry" />
        </mxCell>
        <mxCell id="uzHDUdc0_aoSdo2malCz-3" value="양식" style="swimlane;whiteSpace=wrap;html=1;strokeColor=#b46504;fillColor=#fad7ac;" vertex="1" parent="1">
          <mxGeometry x="220" width="340" height="498.36" as="geometry" />
        </mxCell>
        <mxCell id="ZS7XKxEIqem9FFSawJES-1" value="" style="shape=image;imageAspect=0;aspect=fixed;verticalLabelPosition=bottom;verticalAlign=top;strokeColor=#457B9D;fontColor=#1D3557;fillColor=#A8DADC;image=data:image/png,iVBORw0KGgoAAAANSUhEUgAAAUIAAAG/CAYAAAAtod5bAAAgAElEQVR4nO3de3AU14Eu8E9LoFCQZA3GyUoeh6BBwmB7MQIjZxdBVIotYy9mRUprKdkHpYQ1kITYFT+0NkmUIKeEHReJKhtgSaaye28ifLVBZVI2K7iOCkQ2K2w5IsY4khnxEqNdWyAhCYuCy879Q+mmp6ff0zPTM+f7VVHWzPQ5fUZWf3NOn9PTWZFIJAIiIoH9SaobQESUagxCIhIeg5CIhMcgJCLhMQiJSHgfM9vgjicPJKMdREQpcX7HavYIiYgYhEQkPAYhEQmPQUhEwmMQEpHwGIREJDwGIREJj0FIRMIzXVAtguCXluKBuz9hefuh0au4ev0GTv33FRx9fxjBI2cT2DpKlSPPrcS822ZZ3v70h1dw9fr/4L3wOP7vyQ/wq98NuVa32qETH6D+pz2W6zK6MEKv/OkPr2Dl9444bmM6yTL7PkKRriypXzkXTzxYDN+s6QCAkSvX8dbpEZwMj+HSlWsAgHlzZuHPPnULFhbkInvGNHm7f/3NWXz/wPspazslzrZ1i7C+fK78+PSHV+QPQcniO/KxsDAXCwtzo7Z76cD7hoH4wy8uxrplhfLjfW+Fcfz8qOa2s2fNwIN3fxILC3OjghAA1iwpwDcfvRMF+TPl5+z8XT61uhj/8Nl5yJ4xDZPXbuCV7kHs7jyNwZFJ07Lp7vyO1QxCNWXvUP3HpuT3ZeOl2nuwouRW+bm3z45i7Q9+m5R2UnIpe03fbj+pOwpYXuTD92vvieph/azrLL6576Ru3f3bH5Q/VI3qlhx8egUGL03G/G36fdl4/Rt/IX+QH+2/iLqdx8zf3B9Jf/s/PHhKqA91XmIXh8GRSdTtPIafdd38oy2dm49Xn/hMCltFqXZsYAQrv3cEb5+92atbXz4X29Yt0i3zX5ev2trH3u7zmP/J2KHs4MgkOt/7UH581+15tuq925+H0x9eESoEJQzCOH1z30nseyssPy6dm4+nVhensEXkBWt/8Fu8Fx6XHz9W5sfyIp8rdRv1GF96vR+T124AAHyzpqN+5VzdbZXWLClAQf5M7DcYxmcyBqELvv7z4zj94RX58d/9hbU/Psps9T/pkUMpe8Y0PP/ona7VrTeJMTgyiaP9F+XH61dY+1v88qpPY+TKdSF7gwCD0DWH/3DzxLmdT2LKXIMjk3hv6GavcGFBLvy+7LjqtHLqZVfngPzzvNtmmfZE/b7sqdM6b4cNt8tkXD7jkt2dp6NmFh+465OaQ5jlRT48WVWMwCdmyTN8I1eu4/TwFbyw/w84NjCiWf+2dYtQFpiNhYW58gTWU6uL8dfL/SjIn4nJazfQc2YUT+99x3Cmb9u6RVh15xz5ZP7ktRt4b2gcr74djmlv/cq5+E517LktaVmF3utA9EST1nbqSQG/LxtPP1yCJXNviWrbmeGPsLf7vO5wsH7lXKwtLcTCglw0v9aH4JGzWLOkAF/7XECewX0vPI6tv3xX93f76hOfQenc/IRMdnX1DaN0bj6AqV5h7f1+x72u5UU++D4+3XS7YwMjePvsqLzf5x+90/B9fXfdIkxeu4HdnacdtSsTMAhdMjgyiaHRq3K43e6bGbPNtnWL8FiZH2eGP8K2/X/Ar343hOVFPjz/6J0onZuPX37t/pgZxlef+EzUUh3l89IfOjB1kK0ouRXBLy/Fgy8djdm335eNX2y6D/Num4VDJz7AF3a+icGRSXn5Runc/Kiwmrx2AyXPHgSAqCVFypnI4JGzOPjOB/inv79XbsvQ6FV89X/1RoWOtN2+Lfcj/+PT5cCSrFlSgBc+fxeuXr+B/3NsEN8/8L4cjOuWFeI71YuwtrQw6mD+4RcXo2LhbXK7lL9j5QcSACwszMVP6pfi4Zd/E/MhsWZJgdz20rn5qF8519V1oXv/cxBff3C+/HhRob0JDIm0PObq9RuWtn9h/x/wy6/dD2DqfS0v8ul+ECyb50PPmVEhlsroYRC6SPlHOnN6dHA9tboY68vn4vSHV6KC6tjACNb+4Ldo3bQcK0pulQ9iKQylg//3TZ+TD3ppeLT5X3vlMP3R396LgvyZWFiYq/lHH/zyUsy7bRZOf3glatnF139+HLkzPyYvGXr77Cgujl/D+NX/N1Xuj6EghaR0zksyODKJr/xLL37dUI7sGdMwdPmq5gE3ODKJmdOn4ZXuwaigWV7kw8u19wBAVFANjkzi6z8/jvOXPsLXH5wvz8hLv4+v//y4/LuQgmxtaSF8H58uL//w+7LlkPbNmo7HK+bFLGP53ZlRTF67Ia+fOzE4FtP2eKjDRf2Bpvad6kW6vWwAUeeijRwbGMF74XG5V/xkVbHmUppt6xbBN2s6dnSIeW5QwnOECaJc2Or3ZcsTKHqzck/vfQcjV64D0J5hHP3omvzz789dxtof/FZeqHtsYAQd7/y3/PrKBXOiyi4v8skHxO/OXo7Zt/KcEgDU/7RHDhpgKgyHRqeWeCybF3u+SXkuTOp9qNWvnIuZ0/8kZvjV9Pm7kD1jmm6P5PsH3pdnX7Vm5C+OX4t6vPJ7R+Sh5+DIJF7Y/wf5tfmfzNFs+9/sfhOHTnyAv9n9pm6vyS1aIwWlfW+F8e32kzH/Dp34IOZDyMze7vPyz0s/na95fnLVnXPwXng84e/b6xiECaL85H68Yp7cm9v7n4Oa2w+OTOLdC1O9kewZ0/Bklf4SHK3FuaeHb+5PPfxac2+B/LPWVQvHBkbkg6zgFu0DVQpavYmg35+7GbAbK4piXl9bWhgTdsqA7jmjfyAePHEz5P96uV93O62T/coDXC+Ejg2MoP6nPUkJg1P/bdyjO35+FMEjZ2P+1f+0B690a//t6AkeOSv/HWbPmIbvqtYyrllSgHm3zYoKTFExCJOgLDBb/tnoPMyhd28e8GY9B6fmzdG+JlVa1JuvczJ+d+dpOSxry+6IeX1taaHca1RebQNMBV7p3PyY4dcXP/Mp+WfpEkYtyskFZU9bNEZXp+hRrmZQ/3+RlszwWnkGoauUl1UpP/k/PefjlsoffOcD+ec/1emZOfGr3pvD8T/71C2a2+R/fAYA4MzwR5qvD45MoufMVG9SOg8p2bZuEUY/uoZtfxyGZs+YFnUlxcaKIs3hl/K6XDNSyAJTPZl0oe49K69PdmLko+u2tv/mvpPyKRfl/xcumYnGIHSJ+txVu+IPTHmC3GgdmbK3OGrzD96IdOIc0F7LtrzIJw/dlcNQNWWPTjn8XVtaiJ8dPYtf/W5IDqy1pTe/SGBFya2aw6+Z02/++c2eNcPwPSgnon53RvtLCbzogbs+Kf88ee1G3L0vJ8t7lGEn/X/hkploDEKXPKropZz+8ErUN44ozxc+eI+1r/tyMwiBqascTn94BdkzpmHflvvlHl39yrn40d/eC2DqRL3RGrdjAyPye5EmTaTeoHSAq88lblu3CFev/49mACh7zVaXlUxeu5E2yzz8vmws/fTNJU7KKz6S6Zv7TkZddvfU6mKsKLkVR/svps3vMtEYhC6oXzk3alj8kipMlAe8soegphxudocuudjCqd7mSwfex8iV6xj96Dp++bX7cX7HajQ8sgCjH13Ht9tPRs0U65FmvaUDam1pYdRMuPKgqy27A6vunBP1RQBKymHi3X7jIJSG7sorNbzuu+sWRX1V27ccnOMz8uoTn7F8/bIyhKWv21KvFhAZ1xHGac2SAjQ8skB+/LOuszHfP7ercwArSm5F9oxp8jIGrU9iadnLyJXrjk6Mm7Xz5dp7YhYz2/X9A+/j7/5iLnyzpuMfPjsPV6//T0wvsufMKFaU3IqFhbmYvHYDL73+pmZdwSNnsbGiCAX5M1GQP1N3MbPfly0P3ZXLYdyyZkkBqksLsatzwLWZ423rFslrMyev3cDzv3zX1d7XU6uLUXDLTMvt/da+k/LfYPaMaXj77KjwS2aU2COMw1Ori/Fy7T3yp77e984dGxiRlz5kz5iGf/r7ezXrk4bXPzjo/uLWF/64Xk85IePUW6enDqDsGdM0T7YrzyW+NzRufMnf/j/IPciNFUWa51ClZR+HTnzg+sErLeh+4O5P4H8/fl/c1wIDU9/rJy2Mn7x2A9/Y+47hl7NKvV2r1iwpwD98dl7U2lEz6uueOUkSjT1ChfqVc6OWGMz/5CzUr5yLE4Nj8gG4vMiHNfcWRF2va+WbiKWAXF8+F6Vz83Hw6RXy9a/Li3xo+vxd+NNbZuKHB0/F9IrWLCmImkXetm5RTOAqJyfu9udFXV2yZkmB3KP67bc+q3l1woWRq5i8dgMnw2Om18J+a99JPHD3J3R7rtK5xHm3zTLtwUm/s5dr70FB/kzs23I/dnUOIHjkLPy+bHz3jz0rrS/J9fuyo4bUa0sLY353ytnrP70lttd5tz9P/iDLnjEND97ziZg6fvjFxVGnPqTTGwff+UAO+TVLCvC5RZ+Iuuzv7bOj+Mq/9Op+EEiXESovE1T+f1SbPWsGyhfMka+ksTvRIV12NzR6lUtmVPgN1XB2z5LRj67jvfA4fv7bc7Z6KWuWFODLqz6NeXNmyQfA0OhVnBgcw7f2nYw5aIzuR/Ht9pNYUTxHt+3K8FBfm2zk9IdX5GuR9bz6xGfw+3OXdYfwT60uxqNLCizf80L6xm+rX0Zh9P/s0IkPcPT9Yd1L1dT34tD70gUn9ywZ+eg6fn/usunX3Md7zxKnXxBh9v9NRPyqfoFIX+MuDWtvzZ0R800mM6dPk0PI6DYFRJnk/I7VHBqLwO/Lxr4t9+MHB983HRL5fdkIfnmp5lfBE2UqTpYI4Beb7gNg/BXvksGRSQxemrR9BQNROmMQZrht6xZh3m2zYr4WTI/fl41l83z4yeEzCW4ZkXdwaJzh8rKnzgP6Zk3H75s+h1ffDuNXvUMxkw9+XzYer5iHx8r8eKV70HAGnCjTcLJEANKXvpoZuXLd0nlEokzCyRJB1O08Jt8r5XbfzKhlGyNXruO/Ll9Fd+gSl1SQsBiEgjg2MKL5Ve1ExMkSIiIGIRGR5aHx+R2rE9kOIqKkUk4Es0dIRMJjEBKR8BiERCQ8BiERCY9BSETCYxASkfAYhEQkPAYhEQmPQUhEwvNEEA4MDGD37t146KGHMH/+fGRlZUX9e+ihh7B582bs3bsXFy9eNK9QVbe6PvW/gYHYG13Pnj0bWVlZOH5c/6bnR48eNa1b671IamtrkZWVhd27dxu+h927dyMrKwv33XefrfcOAHv37kVWVhbmz59vuyyRKFIehC+++CICgQA2btyIoqIitLS0IBKJyP96e3uxfv16XLp0CXV1dSguLsaLL75ouf6ioqKo+rT+FRUVxZQbGZn64tLx8fGY1yQrVqzQrK+qqgoAsH379pjX/v3f/10uPzo6CgC4fPmy4XuQXn/rrbcsv2/JuXPnAAChUMh2WSJRpPRruDZv3oydO3fC5/Nh//79WLFiRcw2ixcvxuLFi1FbW4uvfvWrePTRR/Hss8/izJkz+PGPf5yCVpvr6OhIdROIyIaU9Qj37t2LnTt3AgA6Ozs1Q1BtxYoV6OzsBADs3LkTe/fu1d32xRdftD1stdPTtOLXv/61q/URUWKkLAhffvllAMBjjz2GxYsXWy63ePFiPPbYY1F1aHnmmWdihqXK4WFXV1fM688884zDd3PT0aNH5Z+PHXP/i1Dthvuzzz7rehuIMk3KglA631VaWmq7rFTG7jmzcDgs//zuu+/a3q8Vv/jFL+SfR0ZG5F7r5s2bY0LKyRDa7Hyn+t/27dtde29EmSrlkyXJ9B//8R/yz+3t7a7Xf/z4cXm4L02YbN26FRcvXsSPf/xj3UkVIkqtlAXhsmXLAABnzti/f65URqrDiuPHj6O5uRmBQADA1ISGUW/NrosXL+Lzn/88gKkQ3Lp1K4Cp2dqvfOUrtusjouRJWRB+4xvfADA16WG0Vk9N2euS6rBSpqKiAiMjI3jwwQfx3HPPAQDq6urw4osvYtu2bTG9NTuOHz+O4uJihEIh+Hw+bN++HStWrEBraysA4JVXXsFDDz1kew0kESVHyoKwtrYWmzZtAgBUVFRYCkMp0ABg06ZNqK2tNd1+8+bNuPfeezEyMoKqqips27YNL7zwgnzu7Nlnn0VxcTE2b96M119/3dZ7uHjxIp5//nm5/mXLlqGzs1Oe/KmtrUVvby8CgQA6OjpQXFxsONOt55Zbbonapx1S79nn89neL5EwIib8T7we8T/xutlmjm3fvj0CIAIgsmnTpshrr70W9XooFIq0trZGHnvsMXm77du3G9YZCoUiPp9P3j4QCERaW1s1t3vuueeitu3q6opEIpGYx1oCgYBh/ZLh4eHI9u3b5f0899xzkUgkEqmqqrL0foaHh+VtnfxbtmxZzO+VSHTKbMuKRIzHgdINThJ586aBgQEcOnQI7e3tOHXqVMxVEFVVVcjPz8df/dVf4YEHHsCtt95qWufu3btx+fJlVFVVWVqec/z4ceTm5spXmcyePRsjIyPo7e21tbzHjtraWrzyyivYtWsXHn/88YTsg4i0KbPNE7PGhw4dwsaNG5Gfn49Tp07pXpZWV1eHf/u3f7NU5+OPP45nnnnGcogtXrw46lK7S5cuIRKJJCwEgalF5ZFIJO4QlK7PdjLsJqIUX2Inka6lla691WL1ulwtFy9exKFDh3DkyBEMDAxort/z+XxYvnw5ioqKsHLlSss9T6XXX38dv/nNb9DT04Njx47J1ysrSb3biooKPPDAA5rXOdsl9aCl64qJyB5P9AgTae/evSguLkZdXR0uXbqE9evXo7e3N6bXuX//fqxfvx4A5C93sNrDOn78OObPn49HHnkEBw8eRHV1Nfbv3x+zj97eXmzZsgWBQAD/+I//iEAggOeffz6Rb5+ILPBEjzBRjh49irq6OgBAa2ur4SyzdK1zbW0t/vIv/xKPPPII6urqkJeXh4cffli33MWLF+WlOZs2bTL8IgjpCyQefvhhfOlLX8KyZcvwve99DwDwwgsvOHmLROSCjO4RKq8kMVtqo6QMvhMnThhu+95778lD4C984QuW91FUVITly5cDAHp6eiyXIyL3ZXQQ/vmf/7n8s52JBOV6wrvvvttw24ULF8pr9JTXGZsZGBiQv5Rh6dKllssRUQLYWWvjhk2bNjleD6f3T1qXp6W1tVVev1dVVRVpbW2N9Pb2xmzX1dUVtV7R5/NFdu3aZek99fb2Rq0p3LVrl+b6w97e3shrr70W2bRpU9SawuHhYd22u/27WrZsmaX3RJTpPLeOMNEyfdaYiOxTZpsQQUhEpOa5BdVERKnEICQi4TEIiUh4DEIiEh6DkIiExyAkIuE5utZ4cHDQ7XYQESWc3+/XfN7xly7MmTPHcWMoMWbOnJnqJhClJQ6NiUh4DEIiEh6DkIiExyAkIuExCIlIeAxCIhIeg5CIhMcgJCLhMQiJSHgMQiISXkbe17ixsdHSY/Xzdup2UpaIvCnjeoTKoIo38Bh2RGLIqB6hVvBJgcZg0xcKhbBnzx758YYNGxAIBDRfLykpQX19veWywWAQ/f39AKbu31xTU2PaHmWZeOuz0z71e9PS3d2N9vZ2VFdXo6yszHCb5uZmw7paWloQDocBIGZb5WsVFRWoqqoyrIvik3E9QrKvtbUVzc3NaG5uRklJSVRwAMCePXtQXV0tH6xtbW2Wyra1teH2229Hc3MzNmzYgJ6eHoRCIcO2tLW1YWJiQi4Tb3122tff3x/13rTa1t7ebrg/AJa2CQaDyMnJQXNzM6qrq9HU1BT1WllZmfxaZ2enaX0Un4wKQr0eofo5uqmjowNbt26VH69atQrAVK8GmDr4CwsL5d7PqlWr0NPTY6lsaWmp3JMJBALIyckxbU9PT4+8r0AggJKSEjmc7NZn1r68vLyo+kpKSjA0NKRbX01NDTZs2GC4z5aWFlRUVBhuEwqF0N/fL7enrKwMeXl58v22V61aJf8O9Hqd5K6MCkLAvXOEolAPuaRho/R9k0NDQygoKIh5vbu727Ssegi6YMGCqOfUpIBSHvy5ublyONmtz6x96tdzc3MthbWetrY23eBqampCS0sLAODUqVPIycmJantOTg4uXLgQ1U7AWrBS/DLqHKHELPisvF5eXo6uri7hzi12d3ejpKREPhjHxsawYMGCqG1ycnIwOjpqWlZ6ThoqLl261HDfo6OjMUGUl5eHvr4+R/VZaZ/S0NAQHnnkEVt1KusGpkJc6tkpKXumY2NjyMvLi3pdGfjAVG9WGhKrf//kvowLQquhJVK42dHd3Y0tW7a4VrasrEwOB+nAtjJhoiee+ozeW3d3NwoKCgx7mE7rdqKqqgpVVVVoa2uT3ycnTBJHyCA0mkWWnqusrERlZaVQM85aQ7u8vDyMjY1FPTcxMYH8/HzTskpVVVW4cOECxsfH5e2lc43A1Mxofn4+JiYmospp9Z6s1qcMDrP2xRNkbW1tCIfDaGhoiHq+oaFBc3ZZ3csFgPHxcc1heU1NDYaGhmL+H5C7Mi4IAethSDdJwzn1QVtQUCCHDQB5lla5nV5ZtdzcXLmumpoazZ5ce3s7QqGQ3DMbHx+POkdptz4r7Wtqaooautql3rfUW9VbPjN//vyYmeCJiQndIXA85y3JmoyfLNH7Z1bW6LlM09HRgQsXLkQdzMFgEMDUQd7f3y8H4GuvvRZ1bs6orFpPT488U6pn6dKlOHz4MICpXlp/f79uwFmpz6x9TU1NqKuri9peOt+XKOrZ8I6ODoyNjWkOfaUZ5nhOJ5C5jOwROiFC4GlRLihWDu2UM5XK9XwlJSXyQWlWtqmpKWqoa7bAGJgK3mAwKNenXK5itz6j9ikXWivXFubk5Oj2DpXnJdvb23Hu3DnLAdXU1IS8vDx5+F1fX4+Wlha5Xcr3omyrtNaQEisrEolEjDa448kDAIDzO1bLzw0ODnr6dp6JnDDxcmDydp5E1imzLSN7hIkMKS8GIBHFJ+POERIR2cUgJCLhMQiJSHgMQiISHoOQiITHICQi4TEIiUh4DEIiEh6DkIiExyAkIuE5vsRueHjYzXYQESWc3+/XfJ49QiISnuMeoZe/fUZU/PYZImfYIyQi4TEIiUh4DEIiEh6DkIiExyAkIuExCIlIeAxCIhIeg5CIhMcgJCLhMQiJSHgZeV9jPY2NjSgvL0dXV5f8WP26nbpE0NDQgObm5piftbaTaG1jVNaNupRllLS2s9oOvbZZ+X1Qesm4INQLKLdCLhMDUCtE7Bzg6kCIJyCc1mUU0E7aov6dxBt4Tj8I9DCA3ZWxQdjY2IhZs2bh6aefTnGL0oM6fKzSOsCbm5sdBZCbdcUjlT099jJTI+OC0A2Z2OvLNFJYmwU4Q4WsYBAqaAWgsodJsbR6bMno1bh97i+RpLZZbSOHxsmX8UHIAHPGzvBYOsiVj51IVahqUb8fO78PdR1S+5X1GL0nhlzyZWQQKsNP72ejMlZfz+SQVc6M2tne6evK7ZyEqpWwshMwWucqAWu/D6OwU9fD0POGjAxCAPIymcbGRkuBlcmhlmhuD+WchqpXQiWeWW6rvU+vvNdMkbFBSMlj9byXF86PpUOApEMbM03GBaHUs6usrERlZaXcI3SzV8jeYyy3hqXxhKpbw3gST8YFYTyshqXVYBWF2xMa8YSqWTucTHpQ5suoIORSF+e8EhBeWAajd57OraG9Xp3xlKX4ZGQQmj1H0eI9oNw8wR9vXW4FejxLgJK9T4pfViQSiRhtcMeTBwAA53eslp8bHBzkfY09iPc1JrJOmW38Gi4iEh6DkIiExyAkIuExCIlIeAxCIhIeg5CIhMcgJCLhMQiJSHgMQiISnuNL7IaHh91sBxFRwvn9fs3n2SMkIuE57hHyWmPv4bXGRM6wR0hEwmMQEpHwGIREJDwGIREJj0FIRMJjEBKR8BiERCQ8BiERCY9BSETCYxASkfAy6r7GVujd51h9c3gn90PO9BvM2735unJ7rbJ69yDW2s6Ne/66fb9k9c3Ztcoqy+ltH8/7c+t3k8z9pqrNRtI2CI3CxulrTvcXT71eonfQ2ilnt6xeONq5UXt3dzfOnTuHmpoawza6feCa1al+3ckHiRYrdVj9/Tn9cLK6b7u/83g+rOKRlkFo1PNqbGyU/+mVM6vX7LVM7Pk5PWgT9emuboto4v29Oi1r1CN28vdg930kajRgJu2C0CyElEGo3ibTw8wprT+25uZmTw5hnJLej5XtEinZoa53SiIR7zOd/47SLgjd0NjYiPLycnR1deGNN95AV1dXqptEKokIDKeBoBeiTg5u5XlB8g7hglDqAVZWVqKystL2JImVHiR7mzc5PeC9NjRO1YSEXju88DuR2pCo3430QZWMHmXaBaHR0Fd6Xflf9fNaPxvVp0XqTTo9FykSswM3GQe00T6szAab0TtI1T1Juwez0fZ2fq9a2xiFmNXebyIDUFm/8veYqH2mXRACxhMi0utWnrPyGiVOsnpZbk46xHvyP1nScWmLUdipg9/tNqZlECrp9fTcqE/vNeWw2k5Pkpzx6ol2LwxPM4nV87WJkPZBaJedc3yUHGaB4tYfv9P96PWSrAyhrZSl1BMqCK1MYpgtvYn3/KIXaZ2QTtYQycp+3GiLW/sxOh/oVKaEYir/juKVVkFo9dxfoobL6Rx2Zpye2HdzaQndZLbu0eyKFrv7srpfs307/TuKp81uSPsgtFveSu/NaMbZ7TZ5idtXI1gtm4yhcTz7iWcxdrxlnYj395WK8qn+4MyKRCIRow3uePIAAOD8jtXyc4ODg7yvsQeJel9jK9caE6kps41fw0VEwkuroTGRlrKyMpSVlaW6GZTG2CMkIuExCIlIeAxCIhIeg5CIhMcgJCLhMQiJSHgMQiISnuN1hMPDw262g4go4fx+v+bz7BESkfAc9wh5rbH3iHqtMVG82CMkIuExCIlIeAxCIhIeg5CIhMcgJCLhMQiJSOvOOT8AABIbSURBVHgMQiISHoOQiITHICQi4TEIiUh4Kbt5k9m9g/Vuqm7nPsJO7jmciJu5692EXrkvL9xE3un9d/XKKrdtaGhI+b1rifSkJAjVB73VG69r1WH3Nb02OGGlDi8EnBXxBJVeWS+FX0tLC3JyclBfX5/qppAHJT0ItYJBGYReDwxyXygUwp49e3Rfr6ioQFVVleP6g8EgwuEwSkpKHNdBmc1z9zXO1CCU3ld5eTm6urpS3JpYzc3NcQ2N4xEIBNDc3IxgMAgAUb22YDCIzs5O9PX1YcuWLY7qr6+vR0tLiyttpczk2SA0C8RUB2ZjY6McalZ6ssrXKysrY57zAnXIWR3a6oWoG6FZX1+PtrY29PT0oK2tDTU1NXHXSaSWkqGxehhs5zxaqsNDHWiVlZWemexIpUSeC6ypqUFfXx/6+vrk5zo6OtDZ2QkAyMnJwdatW6OeLykpQW5uLkpLSxEIBKLqk4IVADZs2BDzOoknZZMl6l5UMgPEbm9OKqP1s/KxXrhr7aO8vDyu9+AmoyGxldlgM26EZF5eHsLhMICpsLtw4YJcb1NTE4LBIOrr6/Hmm2+iublZDsTS0tKYuvr6+lBdXY2ysrK420WZwTPLZ+y+nmzx9Fb1npeGyKkWT1A5HU7Ho6+vD+FwOCqEpZCcmJhAR0cHqqqqNCdYGhoa2AukGJ5YPmN1m3jWBaofq4e1qQ7eVO8/Eaz0Fq0aGxtDYWGh/Hjp0qWa5wsrKirQ2dkpD4+VEy/9/f0AgFOnTjEIKYrnJkuMmPW4vBomiV4E7haz4DJaTK31mt0htJ62tjZMTEzgvvvuk58bHx+P2kYaGks9we7ubrS3t0dNsJSUlOCuu+5Ce3s75s+fzzAkWUqDMNkHfarXMMa7CDyRrAxprWyj97rT4XIwGER/fz9KSkrkoe6CBQvQ2dkpD4FDoZC8fVNTE7Zu3YqysjKcO3cupr6ysjK8++67aG1tlSdYiDwbhG4HQzy9xmSVEZV6QbW696ie2KiqqsLY2Jg8BFbOGufl5cnlpedbWlrkc4jBYBC5ubmYmJhAQ0ND3Iu1KTNkRSKRiNEGdzx5AABwfsdq+bnBwcG4b+fp5lIZN4fGybrW2I1t1eK9nafTobGVsmbliZJNmW0pC0JyH+9rTGSdMtv4NVxEJDwGIREJj0FIRMJjEBKR8BiERCQ8BiERCY9BSETCYxASkfAYhEQkPMfXGg8PD7vZDiKihPP7/ZrPs0dIRMJz3CPktcbew2uNiZxhj5CIhMcgJCLhMQiJSHgMQiISHoOQiITHICQi4TEIiUh4DEIiEh6DkIiExyAkIuGl9AbviaJ3b2D1PYuV2+ndz1ivDG/gTpQ5PB2ERmHj9LVE82q7iEifZ4PQqOfV2Ngo/9MrZ1ZvoqRr2DU0NMg/b9iwAYcPH0Z9fT3a2trQ09OjWaa6uhplZWVRz7W0tCAcDgMAli5dipqaGvm17u5utLe3AwBycnKwdevWqLLK1+2W1WJUn7qtzc3Nlssqy0kKCwuxZcsW+XEwGEQ4HLbUTko9Twah2fBTGYR6Q1kr9Rjt2+rzVl93um0ytLS0RB3sTU1N8ms1NTWoqalBQ0NDVPC1tLTIQSE9FwwGUVZWhrKyMjlI8vLyUFVVhVAohO7ubjlwWlpa0NbWJu8zFAqhvb0dGzZsQCAQQEtLCzo6OiyV1WJUn9TWnJwcNDc3o7u7G01NTXJoGZXt7u6W36MkGAzi9ttvlx83NTVhYmICOTk5cfxfoWTyZBC6obGxEeXl5ejq6sIbb7yBrq4uy+W0HlsJ53QVDoejDuytW7ciGAwalikrK0N7eztGR0fl526//Xa5HikML1y4IL+u7DEVFBRE1Xf48GGUlJQgEAjI5Q8dOiQHl1FZLUb1hUIh9Pf3Y8OGDVFtlcLOqOycOXPk5yX9/f2or6+XH2/duhVtbW3o6+szbSd5Q0YGoRRKlZWVqKysTOpERzqeI8zJyUF7e3vUQa48sLUcOnQIAOSgUv8s1ZubmwsAUeHR3d2Nvr6+qGFjOBzGfffdJz+eM2cOJiYmEAqFTMtqMarv1KlTyMnJiao3JydHDm2rbQGAjo4OlJSUGLaFvM+TQWg09JVeV/5X/bzWz0b1qbfR25+Vduttb7b/VKqrq8OePXuwZ88eALHnyyTt7e3ycFjr/KCa1jkyvWHjxMQE8vPz5cdS4AwPD8s/2xlyGtU3NjaGvLy8qO1zc3MxNDRkuS2SCxcuRA2LKT15MggB8+CwG1hWAsiLIZUMgUAAzc3NCAaD6O/vR0NDA0pKSmJ6hdXV1RgdHUVnZ2fUkFhLR0dHVK9KIgVjQ0ND1Hk5K+IpmyjqYTGlJ88GoZJeT8+N+tzkJLy9RDqgpUBUTi5Iqqqq0NfXh87OzpjXJKFQCBcuXDAMiOrqarl3CUwNTZXhGgqFAGjfEkJZNhQKyT1Z4ObsrVF9o6OjMefvxsfH5Z6m1bZwWJw50iII7XLa+3PjHGK8s9ap0NLSEjUZUV9fj5aWFoyNjWluv2XLFjQ0NMSUk7S2tpr21tShUlhYGLW/4eHhmPN4WmWl3qyaWX2dnZ1R209MTGDBggW22tLX12d6eoDSQ8ZdYqcMH71/yu2c1O/1YLMrHA6jra1NfhwKhRAOh/GpT31Kt0x1dTXC4TBaWlqinm9oaIgKwba2NrlHpXT48GEsXbpUfrxq1aqo9YqHDh3SHFprldViVF8gEEBJSYn8njs6OjA2Nib3cK20JRQKYWxsjEGYIbIikUjEaIM7njwAADi/Y7X83ODgYMLuYuckZOz2wqxeTudk/4ksY8bpXeyCwSByc3OjDn5pMkS9oFq5cFgaQgNTw8mJiYmYuqXt1fVUVFTEDK31FjFbKaslUQuqpTYB0FzLqF5wLa1HJG9RZpvngtAN8UyM2J0h9hLezpPIOmW2CXuOMBFliSg9Zdw5QiIiuxiERCQ8BiERCY9BSETCYxASkfAYhEQkPAYhEQmPQUhEwmMQEpHwHF9ZMjw87GY7iIgSzu/3az7PHiERCc9xj9DLX7ogKn7pApEz7BESkfAYhEQkPAYhEQmPQUhEwmMQEpHwGIREJLyM/Kp+smHkO6lugX2+b0c/TtV7ULeD0hZ7hEQkPAYhEQmPQUhEwsvIc4Rm9yw2upG72/dEtnvzea/Jmt2IyKXGmJ/jqceLZbNm62/jxvu3o6GhIeY55Q3oGxoaYm5IT/HxdBAaBYbT16zsz6xu6Z9b+/UCdRDYPeCV5e2U1QugZASO3v7cCjytQANgGmIMueTzbBCa9dqchlEiwiqeXqQXxHvgq8vb6YUlO/DMGPUM7TDqtZm9pocBmTieDEKznpkyCNXbpGIoaiV8vRyE8dAKs8ilRk+EnNQGu21RlnESjGZD1+bmZt1tOARODU8GoRsaGxtRXl6Orq4uvPHGG+jq6rJUxkpo2T1HmI7nBtOZFF5S+CkDzSgQ9UJdXW8ySCGo/C8lTkYGoRQ4lZWVqKystDRJoi7rdJ/qHumuXbuwceNGR3WmSjIPeK19KScnnNSlFXbqOtXbqEMwlb1aZU9Qq/fIUHSfJ5fPWBkaa72u1/tKdY8s3YbGkUuN8r9k7ku9T7ttsLK91jZ6ged0aGzWg9Mb8jY0NGi+xh5h4nm2R2g2TLU7UZKISRR12Gq1V9kbTKcwFIlReDr9MDAKL73zfmbnFSlxPBuESlq9O7fqM9qH3V5lKmasaYrdnpuTgHNSRh1gbvTsGIruS4sgtCtVy1nSfRlNOtMLKTvn+czCNFnnC83CkkHovowLwngXRafbflNNa1LBC0tn7LLS5mS8LytLZrisxn2eC0Kr5/7cHi6LTG9SwOpBry7vtJzT/XuJujen1btTPsdA84a0CEK75d1YC2i3HfHuN9XiDR2n5b0SdlZmiK20Nd5gszJDzPB0X1YkEokYbXDHkwcAAOd3rJafGxwc5H2NPcjRfY35xazutYPSijLbPLmOkIgomRiERCQ8BiERCc9zkyWUZJlwnisT3gOlFHuERCQ8BiERCY9BSETCYxASkfAYhEQkPMezxsPDw262g4go4fx+v+bz7BESkfAc9wh5rbH3OLrWmIjYIyQiYhASkfAYhEQkPAYhEQmPQUhEwmMQEpHwGIREJDwGIREJj0FIRMJjEBKR8Dz7Vf1Wb+pu9T7Byu31yhrVpS7j5n4zgda9eJX3321oaLB0P16je/pK5a3WZXdbEldaBaHTcuXl5ZbLOdmvWWinE70gMgsTt8LGSXgSxctzQWglQJz03Lq6ulxonbX2SL2/dAtDo+Axe02P0yAzqpPIbWkXhOkUMOnSTsC899Xc3Ky7TaJ6ccp9OglGZVn2LMmI54JQojfc9Mp5NivtSKfQdoM6eJz26rSCSx22ZuWVZZRtYSCSFk8GoVbINDY2YteuXdi4caMrdcdLpICzQhleWr0wq6GoLmenR2cUdsqJFr1tSFyeDEIjbpxDNOptWjn/mInMAkfvNb1gcTIkNRp6W6nLyr4YgKTFk0GoF0rK3qBZKJWXl6Orq8vW8NTtoEu34DQazuoFiNl5Rbv7t/Iaw4zc5skgBNIvRCRO1xt6iTpo3JjBdXPdn9Y2dtvIMCUlTwahG2v6KisrUVlZicbGRrzxxhsJ36/ozIIo0cHjZNkPkcSTQWhFqsLKzhpGUTjtxRltS5RMaRuEWlIVRFqX/qUTdfBoBZHyuVT17rTaQuQGTwahnSszzELIzpUlbu43ncQbbFbWDFrdh5t1EVmVFYlEIkYb3PHkAQDA+R2r5ecGBwd5X2MP4n2NiaxTZhu/houIhMcgJCLhMQiJSHgMQiISHoOQiITHICQi4TEIiUh4DEIiEh6DkIiE5/gSu+HhYTfbQUSUcH6/X/N5R0GoVxkRUTri0JiIhMcgJCLhMQiJSHgMQiISHoOQiITHICQi4TEIiUh4DEIiEh6DkIiExyAkIuExCIlIeAxCIhIeg5CIhMcgJCLhMQiJSHgMQiISHoOQiITHICQi4TEIiUh4DEIiEh6DkIiExyAkIuExCIlIeAxCIhIeg5CIhMcgJCLhMQiJSHgMQiISHoOQiITHICQi4TEIiUh4DEIiEh6DkIiExyAkIuExCIlIeAxCIhIeg5CIhMcgJCLhMQiJSHgMQiISHoOQiITHICQi4TEIiUh4DEIiEh6DkIiExyAkIuExCIlIeAxCIhIeg5CIhMcgJCLhMQiJSHgMQiISHoOQiITHICQi4X3MSaGslstut4OIKOEiW27RfJ49QiISHoOQiITHICQi4Tk6R0jO6Z2j0KJ1LlavvHJbaRuey43mld9LvO3wyvvIJAzCJErUARDZcgsiW26xXa+VULWyvV5Zre212n7xagRz/nlMd39m78vo92KlvFF79dj5kLLahnjLk3MMQooJL7NQtXNQ263bqHyi2QlMrfdh9AFi5X3HW56cYxAmUVbLZfmP2ur2yaZso9s9V6t1c+hHycYgTLJ4hm9GQepmaLgRhkZ1G0l1CHr5Q4oSh0GYZtLhAHQapG6dQ3W6n2SHcKpDn25iECaJ2UFqNnFh9SD/0fFr9hrmgJVJFq3ea6KHw3rBZrZdqnilHcQgTJp4/+iNZinVr3118Yy49uWkLWbbKUNRXf7WmVn40fFr+OriGRk3KcClMumBQZgibvdW7Cz9SAVlz1Yr7L52eBJfOzyZ0hnSdJjMosRgECaZ0VDRqNdkxmz9XrpI5ESN1f0rxdMjY28wfTAIk8jsD9us16SuI1EHSKoP4FSHYbysnhdNVHmyj0FIUdyatNAKMqdLhawsRE7GsiIj6n3He5UPAzC5GIRJpD5gjWY53Zw9NWP3ILRyKZheONlpm90wjEe8s/qJmAyj5GEQJpl6+Kv3ulF5qyf03Q6PRGyf6ICzikEkNgZhiiSzx0dTvPJ7Y+/Re/h9hEQkPAYhEQmPQUhEwmMQEpHwHE2WpPOVC0REauwREpHwGIREJDwGIREJj0FIRMJjEBKR8BiERCQ8BiERCY9BSETCYxASkfAYhEQkPAYhEQmPQUhEwmMQEpHwGIREJDwGIREJj0FIRMJjEBKR8BiERCQ8BiERCY9BSETCYxASkfAYhEQkPAYhEQmPQUhEwmMQEpHwGIREJDwGIREJj0FIRML7mNUN73jyQCLbQUSUMuwREpHwsiKRSCTVjSAiSiX2CIlIeP8fNSVj+PFDlHMAAAAASUVORK5CYII=;" vertex="1" parent="uzHDUdc0_aoSdo2malCz-3">
          <mxGeometry x="8" y="40" width="322" height="447" as="geometry" />
        </mxCell>
        <mxCell id="dy_PYW5bkfk8av2Xu108-1" value="1" style="ellipse;whiteSpace=wrap;html=1;aspect=fixed;strokeWidth=2;fontFamily=Tahoma;spacingBottom=4;spacingRight=2;strokeColor=#82b366;fillColor=#d5e8d4;gradientColor=#97d077;" vertex="1" parent="uzHDUdc0_aoSdo2malCz-3">
          <mxGeometry x="130" width="20" height="20" as="geometry" />
        </mxCell>
        <mxCell id="4EP1XrkLFuM-ZVI9OaOq-1" value="양식" style="swimlane;whiteSpace=wrap;html=1;strokeColor=#b46504;fillColor=#fad7ac;" vertex="1" parent="1">
          <mxGeometry x="920" width="382" height="599" as="geometry" />
        </mxCell>
        <mxCell id="ZS7XKxEIqem9FFSawJES-3" value="" style="shape=image;verticalLabelPosition=bottom;labelBackgroundColor=default;verticalAlign=top;aspect=fixed;imageAspect=0;image=data:image/png,iVBORw0KGgoAAAANSUhEUgAAAZIAAAI5CAYAAACLsbxKAAAAAXNSR0IArs4c6QAAAARnQU1BAACxjwv8YQUAAAAJcEhZcwAADsMAAA7DAcdvqGQAADOMSURBVHhe7d0N0B3XXd/xNTSZJLKME0wTSbYToyABgmIsEiXTPHg0D0QTEmCcojYGSjoqHkwLbjLFE00xrQG3oxnKJKi0tDXVENoiGg1oeAkepVGNURgQiUR4ESBFwsQvkgNOoshyDGFa17997v/R/zk6Z/fsPXvfv5+ZM3dfztnde++j87u7567uNc+/oAIAYEhfNHgEAGAoq2ckN737oXoBAAC5Hn/vWzgjAQCUIUgAAEUIEgBAEYIEAFCEIAEAFCFIAABFCBIAQBHuI1kQv/WvvrG65cvWDebiPvvs31YXP/+F6uynnq3+88N/Xv3en392sAbj1Nd7deCfbq+++Wv+7mAuz785/CfVgd/6ZLXnG19d/egdXz1Yutb//uO/rPb8txODuStix23bw/zSfSQEyQJ5/Ze/vPrpf3xrteH6l9Tz/+znP1792u9fqKdvfPlLq3e84cbq275+w2pn8JEzn67u/cU/qp747HP1PManz/fKB0qqY1dw7H3r1mrfB0+vrtcx/PC3fWV126uvr+cVXj/8S6dWjyOk4/qxt391va8LF/+6DjhCZP5xQ+KC0afWP37i0mCuWtMhqAP69w99ovrGf/db1c8dW/nH/6YtX1r98j1vqKcxXn2+Vx/5xNODqTR1+P/r+BPV1920EhqiY/jn7/949dwX/m89rzOgVIiIjkvhIT/+q39GiCwQggRX+ZFf/pPqlz92vp7WJ2J9osV06vO9+rWPX6jWv+TvDOZWKBx0tiM6+9FZR5PveuPN1Z+ef6YxcDB/CBJE/Yv/+QfVo3/1bD2tSxVtHQgmp6/3SmcgsbGPf/1CWBldumqy86u+rPrF448P5rAoGCNZMP56edt7/uMvdBr/ZOnV9bQ+9arD8r716zdUP/hNm6vX3PCy6qUv/uL6GvrHHv1s3fGE1+p/6C1fUb35a15ZveRFX1RfktE1+bt3fnn9Kbrp2rs6xf/4zlurW25YV7183YsGS9fS4O9rX7luzUCvOlbtJzbgbOvEDxD75RLuW5d4/vTCM9W//dU/u2pwW6/F997+muqrNqyvtrznQ/X4wgP/YFv1VRvX1+102UhnD6EP3fum+vX7r7/5aH25yuvrvfID56kxEu0rFiLmV971xnqsRM9Fzy9G7/H3/P1XV3/vvg8PlmARMEaCRrrUYdQheuq4/tP33FpfxlDH8sYf+83q0aefrTs+Xav3n4oPfv/r6w7GtlF3em96dT0GoPbqpH/yHV971SdpzWtb6pzf96FP1J2pOkK7Zq9LLlqmDvCHfvGPVj+VK5i+82c+Wk9r3U996Gw9LepkfVho+uQnL9aDw9qGUTD8n71L9fS3/ORv1/t56A8/VXem/+P7XlevNz/1XV9X3ftCJ6p1ClSt00D5E59ZuSykZerk1aGH9Jpo/fbXvHywZDhN71WOr7nxusFUnMJTdKx6/2I0+P/wn/7VYA6LhCBBkv/UrTMJo0/b/2jHjXUHbJ98dQby7e/7nToYdJbxC9//unq53Pkzv1f9/G+vfAp+1ZesfAtJHbg6+Tf/xEfqjl8d1Ju/du2Zg84GtC19mrdP0Xq0a/bbNl3p/HSsFgQ6Vn9GpE/6Oi659Nzf1o/ey1/2oqu+Qvsj3/aV1V//7f+rn5NtS89VQaRj9cGn5RZc8p1vuKl6/Y8+XD8/PXe9TvKmr7ihfvQ0WK5j+4XfLbsclHqvcigI9To30fbtNfz22zbWj57+JvTe/sRvnBkswSIhSNCZvhKqzvRXTq4M8nr/4cPn6kddLvKf2j/z7Bfqx6c+99dXXeLRmYyEHa06eLH1xr6FFF7qUmens5LYp+YP/fGn6sfbv3LtPtQBXv+yF6+53KO26lh1mS6k0NAZkfZx77dsGSxdCVKj8PD+8LHP1Y+6/BbSa6EwHdfgtC5x6VKEL2//hquDIcbGPvS66zKWp78JXfYLL2liMRAk6EyXmsR/PdWoQ9QZhtwR+eQa8+lnVkIm5RXrXjyYWsv24z3yZyshs2PzK+pH89Ubr6sDIAw4jdOEl2Os7ZOJTlEdpnz9q7+kfmwTBuEk6dKgLtP54i8XNlHY6hKg6DKW0ZmZ/ibs8hcWD0GCJH1aN7rMI1qmT+Ny/rMrnUpI9xvIja8o+6aX7tqWpa1rzyIsWGId9H95+NG6U9Q4gR2/OjqNAegSmWhQ3HzDLS+/6nKMXX77XOQymFjwWb1pEHuvcikgLBzbHPmjlTM7H8jft/OW+kzTX17DYiFIkPStt1751Hn83Gfqx1e6zjMc0wh9+nLzmUYbjTHoUpUGsXUdX9Rh/sPX31h/MtbNciFdWrFOUfc0iL6yqg5QISP69Kxw0eUZdYDh5RgbY9BZTJOLn48HzSTE3qsuNBaUQ5fi7EzQAlljJr/KfSMLjSBBko0n6BO+dcL+Wr6+FtvkLy/9zWBqeD/x0Cfq0Hjja19RX8/XN6YuvND5v33/7yavx//sI39RP+qeBtFZhzpA1dfAt86o9ClaX0e2sRNP4SJfuj5+Sc1MU5DE3qtRsbEjBbyNRYVfXcZiIUgQpTMAu79CX3v1nbZ9eyccuA6VfoNHZw36dtQP/PeP19+C0vV8fdXYf5MqxsZpNCis+x/8oPmx0ytjKPoUrUtTsQ7w9z+5MjhuZy4psRCahKb3qiud8bXdHa/7hGxMRV9rjn0pAYuFIMFV9CnTvsnjv+Jr7Ns76rzCeyPUEWm5vqJb0qGJvv6rswddttF+rPjxgBQbQNenZn9ntoLDQibVASoA1VFq37E7uXWGo7OkPj6FKwR0U6L/AkAXbe9VV7r/xf6/rBS9r35Mxb++WEwEyQJRB+xvPPOdl40Z6E5vfcpUR6p7JmLXzjU4a/9ZoP7HWAsTbV8dkTpZ/U+03jdve2X9qLMAHwTarzrmevoVL11zBvD5v7nyqVdfW7XySz/4hvoy1x8+8E1Xfc3X2NmQOtcw0E49ufJts1SHqfr/8oXj12ugGyxtfEbHpjMcjaHoPyX0/Ndhw6/GvmPHTfWjvmYchqBCQF8MCL/h1td7pbr+a9X+P2X0tH1tT3IGze0bWrHXF4uH/yJlQcR+KyKkT+oaH9ClK3XEbR2EAkSdpN1JrQD5nbOfuepTsTr9kP5bEwn/+xLx/42HwsK+BSYvedEXX3XznP8v1j190td9LeE6ddL670t0/0YT1dP9EbrEpbMTvT4KofC/a4+9tvqSwM995JOr/zWJ53/PQ20Vrv6/SOnrvYr99zBtwv9epYlCVeNRsdcei0P/vgkSTC2dbVz30hclOzZ92j7wvdvrzrT0kg6A4ShIuLSFqaSzHV22aQoIfQrXV4w//CcrZzcAJoMgwVTSf+ooqTEQUdh86bUv5tIKMGFc2sJUUoDojERsbMK+cioaiNZ9HHt+9gSDvcAEMUaCqWaD3f63SBQmf/H05+uvIPv/aBHAZBAkAIAiDLYDAIpddUaidAEAoInPDM5IAABFCBIAQBGCBABQhCABABQhSAAARWYiSK655ppoCaWWD6vv7QHAPBp5kFhnHJYu9A3lWOkqdhyx0kXXNsPsAwCm2ciCxHeYsQCYRIcaOw5JLQcAtBtJkIQBEvLLm8LEwqatAAAmp/cgsY4955N9W5hY4FgxqeWlfDiljiklbJsqADBvZmKwPaWkk1b9gwcPrk5LSUCFbVMFAObNzARJ3x0/AKAfvQeJdeg5Zwg+EJpYvXe84x2dtp/S9/YAYJGN5IzEd86xDtovzw0RX6+k8+97ewCw6EZ2act31OqgfTG+TsjXjdXznb/fZkrf2zNhu7Yisf0DwKwayxiJOk5fcuTUz6ljcurm1Inx7cL2TesAYB7MzGB732JnC74IHT8AtJuZIIl19r5ITscfqx8W8fUAAGlTHyR9dvzhdlLC7QIA0qY6SOj4AWD69RYk6sDDYnKX+3XTLnbsvpjYOl8AYNb1FiR2VlBaPJtv63T9+nAbXp/b0/I+CgDMuqkfI/EdrnXwYZHcjrnv7QHAopv6IDHWsadKV7Ft+AIAyDMzQQIAmE4ECQCgCEECAChyzfODAYGb3v1QveDx976lfnziiSfqRwAAzI033lg/+sxoDJIbbrihngZyPP3006t/ZADmj3IhFiRc2gIAFCFIAABFCBIAQBGCBABQhCABABQhSAAARQgSAEARggQAUIQbEgfuv//+wdQVS0tL1bFjx1YfxdeLtQnl1JkXXW9I3Lt372Bqxb59++pHLde0PXqpNhKr73VpG9Y1VqdpX6n9WJumtqatTriPUNv2gWFwQ2ILdfjW6a9bt66eXl5erufbWFtfkEcdXm6nZ52rL20dqunaNqyr0sWw7brw+wgLME4ECTCgYLFwsWlfAMQRJD3gjGQ+hJ/m/Sf8cN0oKbS0r7bw8iEXFmCcCJKEnEDwweHrxpahXVsnaJ2rL7mde0nbYdg+wuk2/rjsmFO0PlWAcWKwPaDOX2Mk99577+p8bLC9S0gsSqAMM9hunV5s2i8btXBfmk9pO7bUOlseW2/7S7UTvy61D2CUUoPtBIkTC43YMsSNI0i0rElT51rStovYcUvT8+pqXM8F8AiSDF2DJCdUcurMi0mfkXSt78XaalmT1L5Sx2HLS44TmKRUkDBGMmAdvr7ya9NHjx6tH1NUL1UwGuqEU6VNrI2VFHX4sQLgCs5IBqzz9492JjLMpa1we4tgXDckDtuRd23bVL9tXUh1rU3YNlY/xtp0rQ/0hUtbQ/KBYvM5CJLhpTpcaetEmzrPrm1L9hXT9LyAWUCQYOT6ChIA0ykVJIyRAACKECQAgCIECQCgCEECAChCkAAAihAkAIAiBAkAoAhBAgAoQpAAAIoQJACAIgQJAKAIQQIAKEKQAACKECQAgCIECQCgCEECACjCD1sl6Pfa7VcR5bWvfW11+fLl6qmnnhosueKd73xndcsttwzmFlfXH7Y6dOhQdeLEiXr6rrvuqk6ePFndfPPN1eHDh+tlntZv3ry5nj537lz14IMP1tNbtmyp9uzZU0/LAw88UL9PGzdurO65557B0iv7Cpen6odS7ftavn///ur8+fPVtddeW913332DpcB04YetOlpeXq7e9ra31dO33npr9d3f/d3V3XffXQeKKDz0M7rr1q2r3v/+91cf+9jH6uXIozBQh6qfnFWxYNixY0cdGupQbZ3C4uDBg/V6+eAHP7i67syZM9WRI0fq5eqk77zzznr5pUuXquPHj9fL9XjhwoV6+YYNG+p6kqofSrXva7keNa/lW7durQ4cOFAvB2YFQVLoO77jO+rHhx9+uH5EHp29KCyMwiNl27Zt9VmD8Z/kt2/fXj355JP19G233bZ61qJP/HZGferUqbqDlt27d1enT5+up1P1Q6n2fS1XuOhYRMsVjsAsIUgK6ZKWzkqeffbZ6tFHHx0sRRudecjevXvrR3Xo6kRj9EleHX3MddddV61fv76etlBQ/U2bNq3O65KRnUkanRGl6odS7ftarrMhBatRwGo5MCsIEkyMxgLUaSpMNEbg6QxEy1V02cefhXg6G7FP86LLRBpj0RliTmfctf4oKCR1tmL03FOhBkwjggQTpTDR2IA+rfuxARsj0fiIBuBj1PHrbMR3ujqrUTu11+B9m671R0FfFtDlLAvO1NkXMK0IkkK6nKXLWrq8xTe38ulykg2Si8ZIFCYhdbKxb3GJBt1Tl8Ne97rXDaZWPvGfPXu2nrazjvATv69vHbqK6qfa97VcFGYWnDaOAswKgqSQdYY7d+6sH5HPf0FBHazGO2L02obfZNKlsLe+9a31tC5PWcdsdMnLzmQ0WG8D2zrriHXUvr516irq6FPt+1pu7Dnu2rWrfgRmBfeRJHAfSXdd7iPRGcnFixfXhInOSrQNfwaizlzsPgt9Yg+/1aRP+hpDsXtCROHjO2R10mpndaWpfijWXvpYbs+t7RiASUvdR0KQoDddb0gEMFu4IREAMBIECQCgCEECAChCkAAAihAkAIAiBAkAoAhBAgAoQpAAAIoQJACAIo13tnOXMrrgbwaYb/wXKRg5/osUYL7xX6QAAEaCIAEAFCFIAABFCBIAQBGCBABQhCABABQhSAAARQgSAECRub4h8f777x9Mpfk6XeuL5tetW1fde++9q/NLS0vVsWPHVudTbF1TnVlSckPi3r17q3379g3mVoTL2urE1ody6ojqeU1tfF1fL3dfwKxYyBsS1UG3FS+23goWhwWAL2GweL4esIgW4tKWDwOCAU1SZxGxMNF8rACLhjESx0ImVvqmbeoSmE1j9NTJxwJhWHYWYsFj0wQKFg1BEuEDJCwpbes9q7e8vLw6ndt2ETR1xLauqU6M6voOP9U2tc63D9k6a6fpVF1gHjHY7up07dStXu5ge2pamtbNimEH231H7Dvgtnnxy1LrJVwuOetMbnu/TNOxdsCsSg2289/IOzkdeNjhh6ERW7YopjFIhtG2H2BRLeS3trqyILBiYsvQD99B61Hzs0bHHCvAoiBIhmSh4sc5jh49Wj9icSgwFICxQphgUcztpa0uZw9dzzZ8ff9ol7Ril7bsMUeXutOk66Ut64RDtjxcn+qYrU5u/ZBvnyPch5/3mtYBs4gxkjHxgWLzi6Lvn9rt2hFPquNOBRAhgnlDkGDk+g4SANMlFSSMkQAAihAkAIAiBAkAoAhBAgAoQpAAAIoQJACAIgQJAKBI430k3BOALvibAeYbNyRi5LghEZhv3JAIABgJggQAUIQgAQAUIUgAAEUIEgBAEYIEAFCEIAEAFCFIAABFuCFxoOkncbXO1oePntXjp3a7C3+utulnan1dXy/1U7u59cNjMFYntX2JrUst88L9p7YPTAPubG/RFBDStN6vUyFIusnthNt0bZNT39cJ62s+RfVi9cP9NW0fmDbc2T4GixQafUl1nlqmdZ7mYyUlVtdKH3SMduz+0aaBRUGQdGRnHTEEyWhZJx122qlwSNW3+T5ov3774XGkjg2YJwRJR01Bgu5ina/4Djpk66ydplN1u9D2wtLGjsNKeBx9HRswzQiSgAWFL0ePHh2sxSiEnXGsQ5ZwnW/XRVMbbTMsbaxOW12tt31bydk+MO0YbM+kQPGPRvOvetWrqqeeemqwpGKwvaNYh9pnJ2vbCrfZNh+K1U+J7a9N1/rAuDHYPmIKjEUKjUlShxsr46ZOP1VsPbAICBKnKQxi62z+7rvvrh8xegqMsNO2EgsTqy+pOiW0vaYSii0zdpzArCFIhmQhkgoetPOdrU3Hlg1LbcPOuS1MbJ9hSdH2UgVYFIyRODmh0FZH6xkjGa1Ux96189Z2urTpo35TKAkBhGmWGiMhSNAbfrMdmG8MtgMARoIgAQAUIUgAAEUIEgBAEYIEAFCEIAEAFCFIAABFGu8j4Z4AdMHfDDDfuCERI8cNicB844ZEAMBIECQAgCIECQCgCEECAChCkAAAihAkAIAiBAkAoAhBAgAostA3JMZ+Bjf107jhcptPPcbM+0/wDnNDYvjTs/6nZsOfqo3V9XXa6ptU/RypbZrY9nyb8PjC+lY3Vi+s77drcref0rZ9sTo52+/zeDB5qRsSKwWJ3Piu36iLefzxx59/7rnn5ra85z3vqUvbsrbS1Ca2rqn+rBf9zXSh1yHkl4Xr+6rvS8zZs2ef/8AHPjCYWyvVJiWs7+dz19l0U/2YtvXDiB2Xie2vqX5MTh1Mjv837jNjIS9tpc4eYss1nSqYTfqUOwufdPVpve0T+7D8dke1DywOxkhaxILDpgmT2VTaQVv7WAkpsPz6LgE2K4HXF3t9Yq8jphtnJE5TQGiZxjhs2gqmm+/ErYMq6aCtrd9GOB9qW18i9vz8dAm/3b62maJt2+ujx1HuC/1jsD0QLvPzNm2PTYPnmo+tj9WbF10H233nYfyycH2qvheubxLbnpw7d646efJktXv37sGSFeG+Uvzxp6hO0/Pxy61eWD/W3mvafkrX7RvVS+3PlqXWS2w/sfqYLAbbg6JBPZW2ZcMWbefXf/3Xr9pmn/uYtjJtg+3DahpsH1bbsTexemH9tva520/puv1Yfb+s9HgweQy2F9KZQ6qEbNny8vLqdKwexkOfbGNlWLFtqeTqWh+YdgRJBh8GYbHlmE7qsHV5JFaG6cy7bs+Wab2x+jGxbVjdVBtg0hZujKRLpx8GRaxtqk5YV/PckHi1sOP0naV12iZW19cJ60tsmUmtS42RSNftNdWP6VJfdWOsfbitVP2Qb5+iOrFjDduE+y85HkxeaoyEn9rN1NTxdwkFq0uQtIt1VCFfJ1U/1WGltt0UJNJle6m6JmzTtX6T1OvRl67bH/XxYPQIEozcvPxme1uQAIsqFSSMkQCBzZs3EyJABwQJAKAIQQIAKEKQAACKECQAgCIECQCgCEECACjSeB/JPNwTgPHhbwaYb9yQiJGblxsSAcRxQyIAYCQIEgBAEYIEAFCEIAEAFCFIAABFCBIAQBGCBABQhCABABRZiBsSYz9rm/qp23B5+NO4fn1sG031TWxdU/1Z0fWGxP3791fnz5+vp/1PsOoXCh988MF6+q677qp/aEpS9Q8dOlSdOHGinvb1Q6nt5raXAwcO1I979uypHyW13VCsbe6+fb2dO3dWu3btqrd35syZepls376dH+TCSC3sDYm+g7Zi8zG+XqqO2LqwblMbXKGOcceOHXUgbNmypQ4Jc/DgwbpTVdG0pOqrExctV0f6yCOP1PMxse12aR923Ca23VCsbZd9i+qpKERk06ZNq8vuuOOOehkwCXMdJKnOPbZc06mC/umTs4JBbr/99tUzjePHj1fXXXdd/clcZePGjfWyVH2xT+E333xztX79+no6lNqu5LQXnUmow/eatuvF2krOvu1sxM5ojAWKPPbYY9Vtt902mAPGizGSgVhw2DRhMlrqgK+99tp6Wh3ihg0b6mlR56plnq+vaXPq1KnVjjmU2m5u+5Sc401p2vfevXurI0eO1NMKCJ11XL58ec2Zm/fMM8+s2R4wTpyRBLRsaWlpddpKyJaFdWJ10Uyf4Ldu3TqYaxfW1yUidby6dKRP712Vti+R2re/hGUBcc8999SP4RmPXSIDJoUxkgG/bnl5eU29o0eP1tMha+OLCeeNlvmgQvczgbC+Olp1vLp0dPr06cHSfKXtS3TdtwL04sWLg7kVZ8+erbZt2zaYA8aPIBkI14vNW7D4dWLLmgqa6VO47wQ1VnDhwoXBXFVPa5kJ63s+XDSeoE/6KmrTtl1pap+Ss90cXYL0+uuvH0ytePLJJ1fHj4BJYIwkEAsDK6FYHSsxtjw841lUNgagTlCXZ9Rha/rSpUv1vIqmrZOM1fd0yUeD3aLBbX3SV1En3bRd09Q+JWe7Ofy+m+isJdy+xk6ASZr7+0hiHXaqE08tl9i6WL1QrH7sMVw2i7rcRxL7Oqy+PqtLPepUDx8+vGZZqv7JkydX769QR2zjCDGx7SqMctv7uvoKst0PEttuKNa2ad86E7L7RTRtFGye9q1LXf4bXMCopO4jmdsg6dIhh514rG1sXVP9UKqu5jVmcuzYsdX5WcUvJALzbeGCZFhNHXksBNrkBoPVy60/jQgSYL4RJBg5ggSYb6kgYbAdAFCEIAEAFCFIAABFCBIAQBGCBABQhCABABQhSAAARRrvI+GeAHTB3www37ghESPHDYnAfOOGRADASBAkAIAiBAkAoAhBAgAoQpAAAIoQJACAIgQJAKAIQQIAKLIQNyTGfr429ZO24fLwJ3D9+tgy01S/SU6dadX1hsS9e/cOptbat29f/aj1Np2SU8ek9mfC7YT1/fou+wXmxcLe2d7UoXfptLtup2ldTNf602iYIGnqjHM66y4delPdcF2srl/WZb/AvFjIO9tTnXNsuaZTpU1um1g9K+hGHbl15jYNYDIYIxmIdeo23dbR+7ZWmsTqW8FaYUjYvALEzghsOqwbY3XCAmB4XNoKaNnS0lJ17Nix1fnYo8Tah2L1c9rNoklc2hqlMGD8sUz62IBJWNgxEol13OGypg4/FizDyGlbsv1J62uwXewMY1o7a4IEi2hhgyQMBYkt66pL25L9zJK+/xv5sLNuCh4v1sGXtI0hSLCICBLXmceWmaZOv2mdDLvdUJe602TUQRJT0qFPqi0wq1JBwmC744MgLLbc8+vahHVtPrZskahDTol11E3123Rpq7pNBcAVcxskqU46tqwvfW8P7UrOCpraal1TAXDFQgy2d9EUBOG6nNBItfHLY8tm0TCXtto+3Yeddtf6XknbkLZFoGDRLOwYCcan7zESANOFMRIAwEgQJACAIgQJAKAIQQIAKEKQAACKECQAgCIECQCgSON9JNwTgC74mwHmGzckYuS4IRGYb9yQCAAYCYIEAFCEIAEAFCFIAABFCBIAQBGCBABQhCABABQhSAAARebihsTYT9SGP1/r6+T8pG3ONiW2LNRUJ7VMZWlpqTp27Njqsmk3jp/aFd/Gr+fnb4HRmtsbEq2Dtc7Xz7fxbaxMyjQcw6So80+VkIWFlbYgkgceeKCuF5bjx48PauRRfbU7cODAYAkAmetLW7PUKetYjx49urBhMkr33XdftXHjxuqOO+5YDaAtW7ZUhw8fro4cOTKo1W7Hjh3V9u3bB3MADEEyYjoGXaKy6RStW15erh+n4bjHKTxT8CVkZyFWND+MPXv21GHy0Y9+dLAEwLC4tBWUPtn2LCCk733MOjtDsBIui2lbn+v222+vLl++XJ07d66et0tg+/fvr+fF5mOXs6z+oUOHBkuAxcT//ptJARAb/I4FRGpawnXherH9zPtguzrhHBYYTfVVR+tT4aIw0KUpFaMAefDBB+tLXqdOnaq2bdtWr1fdrVu3DmpV1fXXX19fBtO2FRrPPPNMHUJnz56tdu3aNagFzL/UYPtcfWsr1tk2retC7XODZFGN87+Rj4XGsEFy1113VQcPHqzPTowueylYFCAaF9m9e3e9XEFy4cKF6tKlS/XYC7BICJIhOvxUW/8YLhtGTtuS7Y/LsEGSOtNIhYL40PDtuwSJLledP3++DgRdprrzzjurzZs3D9ZeofA4ceJEvW1Nnz59ul6eqg/Mq4UIkiZNdWxdqk643j+Gy4bRtI0+tj8uw95Hkur8Y+u61jdhkChEzpw5U1/W0jIbA9EgvGh+06ZN9ZmHzkY0rzOUxx57bPXSls5iOCvBIkkFyVx9a0udbVhK2Tb8tmxaX9cN2X5zCvqVChGdbejMQ5epFDYqChFd0rJgUYBoma1XUIguY2le7UVnJqqn8RHROgshYFFxRvICWzdM517S1uS0Ldn+uIzj0laqrkmFCYByc31pC9NhnIPtAMZvIS5tAQDGjyABABQhSAAARQgSAEARggQAUIQgAQAUIUgAAEUa7yPhngB0wd8MMN+4jwQAFpA6/zY5dZoQJACAIgQJAKAIQQIAKDLxINH/5tr2P7p2Me3bA4B5M7JvbaU63/C/+bZ6w/yX4dJle5IbCta+bXuSU8frWn9W8K0tYPrk/LvM/bfr6/nMmPjXf0s61Vjbvjv1nO31vc9ZRZAA02ccQcIYCQCgSK9nJPZJO5c+kZd8Oo+1LT07SD2Hpu2l2rQZ5jlPM85IgOkzjjOSkV/aauvYu3b8Xqxtl+2p7s6dO6uHH364no+1ydle1+fQtf6sIEiA6TOOIOHSFgCgyNQHiT69p4oM+6ne2u/atWt1G7YMAJBvqoPEh0WqDCMWQjZNmABANyMdI1GnHI5BpDrqWCjEOvw2TW38vlPbDOvkHoNvl6PLc5oVjJEA02ccYyRjD5JQU0ed24l7w7RpUrK9vo9l2hEkwPQZR5CM7NKWdaLTPAah42kqomNflCAAgGEs5Le2YkERFvH1AABxIwkS30kb3zn3yTp7lSNHjgyWpvlj88cX8uv7PmYAmCe9B4nvqENdO2ZfP1XEOn1dRgMAjFdvg+3WqUssRDwfAH66D23b67q/pvq2rlRfz33SGGwHps84BttH/l+ktBl3kIgPgFS9nDpYiyABps84gmQhB9sVDBYOCoxYEV8PABA38TMSzA/+ZoDpwxkJAGDqESQAgCIECQCgCEECACjSONh+ww031NNAjqeffprBdmCOMdgOABgJggQAUIQgAQAUIUgAAEUIEgBAEYIEAFCEIAEAFCFIAABFFvaGxPvvv38wtcLmU48xWtel/tLSUnXs2LF6uqnerBrmhkT7L/uN/2/7tS6cj/E/CRD7b//b2gHIk7ohkTvbAzmB4Os01Y+ta6o/67oGSazj98uagiF3eaquNK0DcDXubB9QB54qR48eHdTCrFAYWAEwGQsdJMbml5eXB0sw7Sw4dEZhJUbLfdj4wtkI0A8G21v44LGCybEAsIDIYfXDAqAfBMlAW0j4IGmrK1qvwXWbDuVsA2uFZxGazg0TAKOzsEESdvTj7tjHvb95EDuLCIPFU8jkFABlOCMZAQsIjbnYNKHRn1gYqIQULDkFQJmFDBI6+tmlwIiFgUosTGLLAPRr4YIkFhw23fT1X9UJS6y+lvtHsWm+XryWdf6+aBmA2cINiYFYEDQZdf1Z0vdP7aaCRctjutQ1BBeQjzvbMXL8Zjsw37izHQAwEgQJAKAIQQIAKEKQAACKECQAgCIECQCgCEECACjSeB8J9wSgC/5mgPnGDYkYOW5IBOYbNyQCAEaCIAEAFCFIAABFCBIAQBGCBABQhCABABQhSAAARQgSAECRhb0hMfyp2/AncHN+ElfrYvVibcJ6sTqzrusNifv376/Onz9fT/ufvD137lz14IMP1tN33XVXtXnz5no6Vf/QoUPViRMn6mlfP5Tabm57OXDgQP24Z8+e+lFS2w3F2hodg+zevbt+DNlz3759+5o6/th37txZ7dq1q54GRoEbEgPqyH1JCes11RVbH9Zva7do1AHu2LGjDoQtW7bUHaU5ePBg3SGraFpS9dWJi5ark33kkUfq+ZjYdru0VxCcOXNmMHdFbLuhVFtjYRCj575hw4b6GC9cuFAdP358sGaFlqsQIpiUhQsS38GH5ejRo4NaGDV9qlYwyO233756pqFO8rrrrqs/1ats3LixXpaqL/YJ/eabb67Wr19fT4dS25Wc9qIzCYWN17RdL9bWKGRS6+T06dPVbbfdVk/rNTh16lQ9bWcjdqYDTMpCB4mx+eXl5cESjJM64Guvvbaefuyxx+pP30Ydu5Z5vr6mjTpYf9nHS203t31KzvE2Uehs2rRpMHfF3r17qyNHjqyeMdlx6nKzhajCRWcily9fXnNGB4wbg+0tfPBYaWLrw/pt7RaZOtOtW7cO5tqF9dXZquPVpSN9Su+qtH0JhVfsklTOpSoLl3vuuad+jJ0JAeNAkAz4Tj/G1vuS0lQ3nEf3M4GwvjpUdby6PKTLQF2Vth+Wzjh0ma4PCtaLFy8O5oDxWujB9qWlpdXpPjt4v71UwQqdAWzbtm0wtzJOoQFlo2ktM2F9z4eLxg10lqGiNm3blab2KTnbTVFo6dte2ofGOmLjHXbWYZe4zp49W4/DxFx//fWDKWC8OCMZgVhwWMEV+kQuGkBWR6kOW9OXLl2q51U0bYPssfqeLu1YJ6vBbZ1lqCggmrZrmtqn5Gw3RZekbB86G1KJfTVYZxsnT56spxU+sSDV8tz9An1byPtIrEOPPTati4mtT9X1curMmi73keiTd/h1WH19Vp/A1aEfPnx4zbJUfXWw9tVZhYCNF8TEtqswym3v6+oryNbpx7YbSrU1FooWWjpL8feFPPDAA/WgusLG1zEKI2DUUveRLFyQxDp+0bwudR07dmx13j/GxOpLTtt5xC8kAvONIMnUNQRi9XPa5m5/lhAkwHwjSDByBAkw31JBwmA7AKAIQQIAKEKQAACKECQAgCIECQCgCEECAChCkAAAijTeR8I9AeiCvxlgvnFDIkaOGxKB+cYNiQCAkSBIAABFCBIAQBGCBABQhCABABQhSAAARQgSAEARggQAUGTub0gMf9I2/Gnc8DFG63La+WWx9RLOe03rZsEwNyQeOHCgftyzZ0/9CGB6LewNidapW0kJ6zXVHZZtM9yPX75IFCJnzpwZzAGYVXMbJGFH7cvRo0cHtTBJOgvZvn37YA7ArFqIIDE2v7y8PFgyXnYsdhy+2HIAmDUMtg+EHfuoO/Vx7QcARm3hgqSt8/YdfFvdlFibcFs2H1sGALNkIQbbl5aWVqfH0VnHtu/33VYAYJZwaWvMYsFhBQBm0VwHiXXOGly36Ul22P4YwmLLF8mhQ4eqEydO1F8BtvtJAMyeuQ2SWOds001f/1WdsOTU5yvF3e3evbvat29fXbghEZhdC/tTu+r8/WObnPq+Tqp+TvtZxU/tAvMtdWc7v9mO3hAkwHxb2P8iBQAwWgQJAKAIQQIAKEKQAACKECQAgCIECQCgCEECACjSeB8JAABepxsSAQBI4YZEAEBvCBIAQBGCBABQhCABABQhSAAARQgSAEARggQAUIQgAQAUIUgAAEUIEgBAEYIEAFCEIAEAFCFIAABFCBIAQBGCBABQhCABABQhSAAARQgSAEARggQAUIQgAQAUIUgAAEUIEgBAEYIEAFCEIAEAFCFIAABFCBIAQBGCBABQhCABABQhSAAARQgSAEARggQAUIQgAQAUIUgAAEUIEgBAEYIEAFCEIAEAFCFIAABFCBIAQBGCBABQhCABABSZ3iC55pqVMoxxt7U2YTHh/Dg17dvWpeqklqd0rd+kZFulx2HtU8WE8yHfpqnMg9Rz8c+zqZTK3Y7fp6/v58N1udTmfe/r3t7qt5Wu1GaY4xnC5ILEnlxYmsTqW2kTa2OlhLV//vm1Rdq27Y+hqTSJ1bfSxNZ3Od4+5BxbE2sfK33z76e9Rl2k2qeWe7HnFytdxNrHSpOcOl74XGNFumyzRGzfXdlr0PW1SEkdU2p5jI7j5psHMx2Fz8eXTHlBEm60bT5H+CJZaRKrryJt+4+1U5Gux96X2PGERVLHZ8tj7VRSfDtj08O8Fmqj8t73rp3vm23TP0dfplXX16ftefrSRaptanlf7Pmmioxiv6HYvlX0qb2LUb9e46TnL+Fzsudl61vkBUnTRv2B5FKbpoLJynkfwvdL7/+73nX1H6Gvs0jC576or49//k2lhPbhQzoltl8VvS+mqb3WpUrXMErRtnKeSx9s+3oNYmx5xnHkX9ryG7U3oO1AUqy9bxdbNgvsePVa+CI5zyVsFxYZ92uS8z5YnVTdtvXzxL9XJvb8w/c0XD+PwufeVLry7SykpWl7ti5Vp+m9sPcqVnwYDcMfT+5zmSLdxkjsydkAjtiyedPlDbQ/JhPOm3Cb/jVsKn2zbaaOZV6Er/eojOp9GiW9LqP45Bt7ze31aSu5/D7Ctn4+PJZYG78+l23XSgm/DX9cEh5nzr6sXk7dHnUbI1HRE3v3u1eWa9qv6ypsk7MtX8fX9W9AH/yb2JdRbHNYdhzDvIb+tc8tk1D6eg/7HMJ2VkzTOgnfm6bSlW/X9ZOv1reFj3/NbZtdSg7bh+0nJqfOMOwY/bb9cVvfmCvnONvqaP96Xx5/fGW+bXvG6qRed/9cW+SPkVixgxZN+3XD6LIt/8TCMowOL1SU2vti/LKma6e2X18/VWLa2rex185KrrBdTpklseP3pU2sTVsJxerESi7/NxG29fO5fzs5bLtdyijZ9sPXwh772L/1Z7MifE18kczXpNulLdt4+ElmGH1ua1J03G2l7dqp6hjfzoTzoVT9pja5mraj96rt/cqpgzylr2Xs7yLcZqyOsXpd/73aPtpKrljbtuL55xh7ntK0rk+xY20ro9T2ujTIDxJ7EtqJPSnb4aif4Cj451PCXotZFTv+WX9OfSh9Dax9W5l31jE1Fcl9LWLtVUzTOhO+B7EyDrFjVTFN64wd64Q/kOePkUjsiQxz8LHtjetF0Pabns8oaD/j2te42esZK/Ou6X21dU1FZuF1smO0Y5Yux29/D6kiftuj5PeXKmL1kKXbGIlpm29S8odjbewPMFZSYxK2Xroc76j4Yza5y8Qv9+v8srbvtqtOOHgaW9bEXstYibHl2naqpJS0Nbn1JsU/F19M07qUWBsV07ZOUu9nG9++qcwKO1b/Ok3q+Ev2b8dv25DcZRHdxkj60PSH07TOWJ1USY1J+Dp9su35FzxVPH88ucWLrQ9L6rXwxxM7JQ6Xhccu4fpYEavnaVlTaRKr70tfbFux5xWWPoXPJ6e0ibVpKyac95rWGVsfe93CMg45xyNNz8uet5VJie0/95isXpfSYPxBkivj4JPG3dbatJVJiO07dky5yzy/PlWGVdK+qW2X7VrdtjKs0vbTpOm52Lq2UqLLNvw+U2UYamcfwobdhpS2N30dT4bpDRIAwEwgSAAARQgSAEARggQAUIQgAQAUIUgAAEUIEgBAEYIEAFCEIAEAFCFIAABFCBIAQBGCBABQhCABABQhSAAARQgSAEARggQAUIQgAQAUIUgAAEUIEgBAEYIEAFCEIAEAFCFIAABFCBIAQBGCBABQhCABABQhSAAARQgSAEARggQAUIQgAQAUIUgAAEUIEgBAEYIEAFCEIAEAFCFIAABFCBIAQBGCBABQhCABABQhSAAARQgSAEARggQAUIQgAQAUIUgAAEUIEgBAEYIEAFCEIAEAFCFIAABFCBIAQBGCBABQhCABABQhSAAARQgSAEARggQAUIQgAQAUIUgAAEUIEgBAEYIEAFCEIAEAFCFIAABFCBIAQBGCBABQhCABABQhSAAARQgSAECRa55/gSZuevdD9YLH3/uW+vGa/Z+rHwEAMM/f8yX1o88MzkgAAEUIEgBAES5toZWdysbY34nVCf9umtp6s/T3lnquXfW1nTbD7mdcx4fZYn8XPjMIErSKdSjhspxOR3V++g++UP3A1724nm+r26btbzRnG5LaTuo55T5X8XXCZU11muTUb9qvDNsOsL8LxkgwdvbH94OPPLfaMaU6M9+BNZU2qfqp5dMgPLawiH/dcurEDNsOiCFI0Ct1RL4z8vPWWYnvuHx9ALOHIEGv/KdbsflYcITrRkn71GU1m55m9hrFiozj9QK6IEiQLezQZoUdb85lNZPzHHNeC6vTVM+vt0cfsmEZVttxAMNisB298B2g6dppdW3b9jfqtxHWbVonWp/6YoC1bdp/rE64LKdOV8NucxTHgvlkfxcMtmMs1AF1KV5suV/ml6eEdfUPwHeOft20CI81VYBpQpBgpGKdYFimjR1Tl0thfYqFnF/ml3t2jKn1KcO2AwxBgizqbJo601QHZ8tTRcbZSc8rQgSTxBgJsoyqwwm32zVUUscz7HZSz9MvT9UJxY7Btwm3E6vfxB+LpI4ndrzDtgPs78JnBkGCbL7zSen6dzOLnVVfxzyu5z7sfmbxvcHo2d8FQQIAGEosSBgjAQAUIUgAAEWSl7YAAEjh0hYAoDcECQCgCEECAChCkAAAihAkAIAiBAkAoAhBAgAoQpAAAIoQJACAIgQJAKAIQQIAKEKQAACKECQAgCIECQCgCEECAChCkAAAihAkAIAiBAkAoAhBAgAoQpAAAIoQJACAItc8/wJN3PTuh+oFAADkevy9b+GMBABQZvWMBACA7qrq/wMwILH8Zch1LAAAAABJRU5ErkJggg==;" vertex="1" parent="4EP1XrkLFuM-ZVI9OaOq-1">
          <mxGeometry y="40" width="382" height="540.69" as="geometry" />
        </mxCell>
        <mxCell id="dy_PYW5bkfk8av2Xu108-3" value="3" style="ellipse;whiteSpace=wrap;html=1;aspect=fixed;strokeWidth=2;fontFamily=Tahoma;spacingBottom=4;spacingRight=2;strokeColor=#82b366;fillColor=#d5e8d4;gradientColor=#97d077;" vertex="1" parent="4EP1XrkLFuM-ZVI9OaOq-1">
          <mxGeometry x="150" width="20" height="20" as="geometry" />
        </mxCell>
        <mxCell id="fGh4EiDcdxts0cLHmMWE-1" value="동원Desk" style="swimlane;whiteSpace=wrap;html=1;strokeColor=#23445d;fillColor=#bac8d3;" vertex="1" parent="1">
          <mxGeometry x="290" y="-230" width="820" height="210" as="geometry" />
        </mxCell>
        <mxCell id="fGh4EiDcdxts0cLHmMWE-11" value="" style="swimlane;whiteSpace=wrap;html=1;strokeColor=#000000;fontColor=#1D3557;fillColor=#bac8d3;swimlaneFillColor=#f0a30a;" vertex="1" parent="fGh4EiDcdxts0cLHmMWE-1">
          <mxGeometry x="480" y="23" width="30" height="187" as="geometry" />
        </mxCell>
        <mxCell id="fGh4EiDcdxts0cLHmMWE-12" value="2" style="ellipse;whiteSpace=wrap;html=1;aspect=fixed;strokeWidth=2;fontFamily=Tahoma;spacingBottom=4;spacingRight=2;strokeColor=#82b366;fillColor=#d5e8d4;gradientColor=#97d077;" vertex="1" parent="fGh4EiDcdxts0cLHmMWE-11">
          <mxGeometry x="5" y="157" width="20" height="20" as="geometry" />
        </mxCell>
        <mxCell id="mo-QfA7pw_Ctone-eFpO-1" value="" style="swimlane;whiteSpace=wrap;html=1;strokeColor=#000000;fontColor=#1D3557;fillColor=#bac8d3;swimlaneFillColor=#f0a30a;" vertex="1" parent="fGh4EiDcdxts0cLHmMWE-1">
          <mxGeometry x="650" y="23" width="30" height="187" as="geometry" />
        </mxCell>
        <mxCell id="mo-QfA7pw_Ctone-eFpO-2" value="3" style="ellipse;whiteSpace=wrap;html=1;aspect=fixed;strokeWidth=2;fontFamily=Tahoma;spacingBottom=4;spacingRight=2;strokeColor=#82b366;fillColor=#d5e8d4;gradientColor=#97d077;" vertex="1" parent="mo-QfA7pw_Ctone-eFpO-1">
          <mxGeometry x="5" y="33" width="20" height="20" as="geometry" />
        </mxCell>
        <mxCell id="fGh4EiDcdxts0cLHmMWE-10" value="" style="swimlane;whiteSpace=wrap;html=1;strokeColor=#000000;fontColor=#1D3557;fillColor=#bac8d3;swimlaneFillColor=#f0a30a;" vertex="1" parent="fGh4EiDcdxts0cLHmMWE-1">
          <mxGeometry x="310" y="23" width="30" height="187" as="geometry">
            <mxRectangle x="320" y="23" width="50" height="40" as="alternateBounds" />
          </mxGeometry>
        </mxCell>
        <mxCell id="fGh4EiDcdxts0cLHmMWE-8" value="" style="swimlane;whiteSpace=wrap;html=1;startSize=23;fillColor=#bac8d3;strokeColor=#000000;fontColor=#000000;swimlaneFillColor=#f0a30a;gradientColor=none;" vertex="1" parent="fGh4EiDcdxts0cLHmMWE-1">
          <mxGeometry x="140" y="23" width="30" height="187" as="geometry" />
        </mxCell>
        <mxCell id="fGh4EiDcdxts0cLHmMWE-9" value="1" style="ellipse;whiteSpace=wrap;html=1;aspect=fixed;strokeWidth=2;fontFamily=Tahoma;spacingBottom=4;spacingRight=2;strokeColor=#82b366;fillColor=#d5e8d4;gradientColor=#97d077;" vertex="1" parent="fGh4EiDcdxts0cLHmMWE-8">
          <mxGeometry x="5" y="80" width="20" height="20" as="geometry" />
        </mxCell>
        <mxCell id="fGh4EiDcdxts0cLHmMWE-2" value="요청등록" style="swimlane;whiteSpace=wrap;html=1;strokeColor=#23445d;fillColor=#bac8d3;" vertex="1" parent="fGh4EiDcdxts0cLHmMWE-1">
          <mxGeometry y="23" width="140" height="187" as="geometry" />
        </mxCell>
        <mxCell id="0xZLmXcqVQH2jk5XXrSn-1" value="" style="endArrow=none;html=1;rounded=0;strokeColor=#000000;fontColor=#1D3557;fillColor=#A8DADC;" edge="1" parent="fGh4EiDcdxts0cLHmMWE-2">
          <mxGeometry width="50" height="50" relative="1" as="geometry">
            <mxPoint y="107" as="sourcePoint" />
            <mxPoint x="820" y="107" as="targetPoint" />
          </mxGeometry>
        </mxCell>
        <mxCell id="hDgkwJy8at_yvYJVaF5t-2" value="" style="endArrow=none;html=1;rounded=0;strokeColor=#000000;fontColor=#1D3557;fillColor=#A8DADC;" edge="1" parent="fGh4EiDcdxts0cLHmMWE-2">
          <mxGeometry width="50" height="50" relative="1" as="geometry">
            <mxPoint y="147" as="sourcePoint" />
            <mxPoint x="820" y="147" as="targetPoint" />
          </mxGeometry>
        </mxCell>
        <mxCell id="czGaGK6m6FzuZQ6heuLP-1" value="" style="verticalLabelPosition=bottom;verticalAlign=top;html=1;shape=mxgraph.basic.tick;strokeColor=#B20000;fontColor=#ffffff;fillColor=#e51400;" vertex="1" parent="fGh4EiDcdxts0cLHmMWE-2">
          <mxGeometry x="60" y="33" width="20" height="20" as="geometry" />
        </mxCell>
        <mxCell id="fGh4EiDcdxts0cLHmMWE-3" value="요청접수" style="swimlane;whiteSpace=wrap;html=1;strokeColor=#23445d;fillColor=#bac8d3;" vertex="1" parent="fGh4EiDcdxts0cLHmMWE-1">
          <mxGeometry x="170" y="23" width="140" height="187" as="geometry" />
        </mxCell>
        <mxCell id="czGaGK6m6FzuZQ6heuLP-2" value="" style="verticalLabelPosition=bottom;verticalAlign=top;html=1;shape=mxgraph.basic.tick;strokeColor=#B20000;fontColor=#ffffff;fillColor=#e51400;" vertex="1" parent="fGh4EiDcdxts0cLHmMWE-3">
          <mxGeometry x="60" y="77" width="20" height="20" as="geometry" />
        </mxCell>
        <mxCell id="fGh4EiDcdxts0cLHmMWE-7" value="요청처리" style="swimlane;whiteSpace=wrap;html=1;strokeColor=#23445d;fillColor=#bac8d3;" vertex="1" parent="fGh4EiDcdxts0cLHmMWE-1">
          <mxGeometry x="340" y="23" width="140" height="187" as="geometry" />
        </mxCell>
        <mxCell id="czGaGK6m6FzuZQ6heuLP-3" value="" style="verticalLabelPosition=bottom;verticalAlign=top;html=1;shape=mxgraph.basic.tick;strokeColor=#B20000;fontColor=#ffffff;fillColor=#e51400;" vertex="1" parent="fGh4EiDcdxts0cLHmMWE-7">
          <mxGeometry x="60" y="117" width="20" height="20" as="geometry" />
        </mxCell>
        <mxCell id="fGh4EiDcdxts0cLHmMWE-13" value="처리승인" style="swimlane;whiteSpace=wrap;html=1;strokeColor=#23445d;fillColor=#bac8d3;" vertex="1" parent="fGh4EiDcdxts0cLHmMWE-1">
          <mxGeometry x="510" y="23" width="140" height="187" as="geometry" />
        </mxCell>
        <mxCell id="czGaGK6m6FzuZQ6heuLP-4" value="" style="verticalLabelPosition=bottom;verticalAlign=top;html=1;shape=mxgraph.basic.tick;strokeColor=#B20000;fontColor=#ffffff;fillColor=#e51400;" vertex="1" parent="fGh4EiDcdxts0cLHmMWE-13">
          <mxGeometry x="60" y="157" width="20" height="20" as="geometry" />
        </mxCell>
        <mxCell id="mo-QfA7pw_Ctone-eFpO-3" value="만족도 조사" style="swimlane;whiteSpace=wrap;html=1;strokeColor=#23445d;fillColor=#bac8d3;" vertex="1" parent="fGh4EiDcdxts0cLHmMWE-1">
          <mxGeometry x="680" y="23" width="140" height="187" as="geometry" />
        </mxCell>
        <mxCell id="czGaGK6m6FzuZQ6heuLP-5" value="" style="verticalLabelPosition=bottom;verticalAlign=top;html=1;shape=mxgraph.basic.tick;strokeColor=#B20000;fontColor=#ffffff;fillColor=#e51400;" vertex="1" parent="mo-QfA7pw_Ctone-eFpO-3">
          <mxGeometry x="60" y="33" width="20" height="20" as="geometry" />
        </mxCell>
        <mxCell id="fGh4EiDcdxts0cLHmMWE-14" value="요청자" style="rounded=1;whiteSpace=wrap;html=1;strokeColor=#23445d;fillColor=#bac8d3;" vertex="1" parent="1">
          <mxGeometry x="190" y="-177" width="70" height="26" as="geometry" />
        </mxCell>
        <mxCell id="fGh4EiDcdxts0cLHmMWE-15" value="접수자" style="rounded=1;whiteSpace=wrap;html=1;strokeColor=#23445d;fillColor=#bac8d3;" vertex="1" parent="1">
          <mxGeometry x="190" y="-130" width="70" height="26" as="geometry" />
        </mxCell>
        <mxCell id="0xZLmXcqVQH2jk5XXrSn-2" value="작업자" style="rounded=1;whiteSpace=wrap;html=1;strokeColor=#23445d;fillColor=#bac8d3;" vertex="1" parent="1">
          <mxGeometry x="190" y="-90" width="70" height="26" as="geometry" />
        </mxCell>
        <mxCell id="fGh4EiDcdxts0cLHmMWE-16" value="" style="endArrow=none;html=1;rounded=0;strokeColor=#000000;fontColor=#1D3557;fillColor=#A8DADC;" edge="1" parent="1">
          <mxGeometry width="50" height="50" relative="1" as="geometry">
            <mxPoint x="290" y="-140" as="sourcePoint" />
            <mxPoint x="1110" y="-140" as="targetPoint" />
          </mxGeometry>
        </mxCell>
        <mxCell id="hDgkwJy8at_yvYJVaF5t-1" value="승인자" style="rounded=1;whiteSpace=wrap;html=1;strokeColor=#23445d;fillColor=#bac8d3;" vertex="1" parent="1">
          <mxGeometry x="190" y="-50" width="70" height="26" as="geometry" />
        </mxCell>
      </root>
    </mxGraphModel>
  </diagram>
  <diagram id="74L85ybClBBg5ulOILko" name="CR">
    <mxGraphModel dx="2029" dy="2240" grid="1" gridSize="10" guides="1" tooltips="1" connect="1" arrows="1" fold="1" page="1" pageScale="1" pageWidth="827" pageHeight="1169" math="0" shadow="0">
      <root>
        <mxCell id="0" />
        <mxCell id="1" parent="0" />
        <mxCell id="yqqvcgakHu76jTQ3JiNa-2" value="동원Desk" style="swimlane;whiteSpace=wrap;html=1;strokeColor=#23445d;fillColor=#bac8d3;" vertex="1" parent="1">
          <mxGeometry x="140" y="-230" width="1790" height="240" as="geometry" />
        </mxCell>
        <mxCell id="5cWnqfSXQAcFe98Pt6TE-13" value="" style="swimlane;strokeColor=#457B9D;fontColor=#1D3557;fillColor=#bac8d3;swimlaneFillColor=#f0a30a;" vertex="1" parent="yqqvcgakHu76jTQ3JiNa-2">
          <mxGeometry x="1660" y="23" width="30" height="217" as="geometry" />
        </mxCell>
        <mxCell id="WJfm9rB5nMVtpUJINdot-12" value="12" style="ellipse;whiteSpace=wrap;html=1;aspect=fixed;strokeWidth=2;fontFamily=Tahoma;spacingBottom=4;spacingRight=2;strokeColor=#82b366;fontColor=default;fillColor=#d5e8d4;gradientColor=#97d077;" vertex="1" parent="5cWnqfSXQAcFe98Pt6TE-13">
          <mxGeometry x="5" y="33" width="20" height="20" as="geometry" />
        </mxCell>
        <mxCell id="5cWnqfSXQAcFe98Pt6TE-12" value="" style="swimlane;strokeColor=#457B9D;fontColor=#1D3557;fillColor=#bac8d3;swimlaneFillColor=#f0a30a;" vertex="1" parent="yqqvcgakHu76jTQ3JiNa-2">
          <mxGeometry x="1530" y="23" width="30" height="217" as="geometry" />
        </mxCell>
        <mxCell id="WJfm9rB5nMVtpUJINdot-11" value="11" style="ellipse;whiteSpace=wrap;html=1;aspect=fixed;strokeWidth=2;fontFamily=Tahoma;spacingBottom=4;spacingRight=2;strokeColor=#82b366;fontColor=default;fillColor=#d5e8d4;gradientColor=#97d077;" vertex="1" parent="5cWnqfSXQAcFe98Pt6TE-12">
          <mxGeometry x="5" y="180" width="20" height="20" as="geometry" />
        </mxCell>
        <mxCell id="5cWnqfSXQAcFe98Pt6TE-11" value="" style="swimlane;strokeColor=#457B9D;fontColor=#1D3557;fillColor=#bac8d3;swimlaneFillColor=#f0a30a;" vertex="1" parent="yqqvcgakHu76jTQ3JiNa-2">
          <mxGeometry x="1400" y="23" width="30" height="217" as="geometry" />
        </mxCell>
        <mxCell id="5cWnqfSXQAcFe98Pt6TE-10" value="" style="swimlane;strokeColor=#457B9D;fontColor=#1D3557;fillColor=#bac8d3;swimlaneFillColor=#f0a30a;" vertex="1" parent="yqqvcgakHu76jTQ3JiNa-2">
          <mxGeometry x="1270" y="23" width="30" height="217" as="geometry" />
        </mxCell>
        <mxCell id="WJfm9rB5nMVtpUJINdot-10" value="10" style="ellipse;whiteSpace=wrap;html=1;aspect=fixed;strokeWidth=2;fontFamily=Tahoma;spacingBottom=4;spacingRight=2;strokeColor=#82b366;fontColor=default;fillColor=#d5e8d4;gradientColor=#97d077;" vertex="1" parent="5cWnqfSXQAcFe98Pt6TE-10">
          <mxGeometry x="5" y="133" width="20" height="20" as="geometry" />
        </mxCell>
        <mxCell id="5cWnqfSXQAcFe98Pt6TE-9" value="" style="swimlane;strokeColor=#457B9D;fontColor=#1D3557;fillColor=#bac8d3;swimlaneFillColor=#f0a30a;" vertex="1" parent="yqqvcgakHu76jTQ3JiNa-2">
          <mxGeometry x="1140" y="23" width="30" height="217" as="geometry" />
        </mxCell>
        <mxCell id="WJfm9rB5nMVtpUJINdot-7" value="9" style="ellipse;whiteSpace=wrap;html=1;aspect=fixed;strokeWidth=2;fontFamily=Tahoma;spacingBottom=4;spacingRight=2;strokeColor=#82b366;fontColor=default;fillColor=#d5e8d4;gradientColor=#97d077;" vertex="1" parent="5cWnqfSXQAcFe98Pt6TE-9">
          <mxGeometry x="5" y="133" width="20" height="20" as="geometry" />
        </mxCell>
        <mxCell id="5cWnqfSXQAcFe98Pt6TE-8" value="" style="swimlane;strokeColor=#457B9D;fontColor=#1D3557;fillColor=#bac8d3;swimlaneFillColor=#f0a30a;" vertex="1" parent="yqqvcgakHu76jTQ3JiNa-2">
          <mxGeometry x="1010" y="23" width="30" height="217" as="geometry" />
        </mxCell>
        <mxCell id="WJfm9rB5nMVtpUJINdot-6" value="8" style="ellipse;whiteSpace=wrap;html=1;aspect=fixed;strokeWidth=2;fontFamily=Tahoma;spacingBottom=4;spacingRight=2;strokeColor=#82b366;fontColor=default;fillColor=#d5e8d4;gradientColor=#97d077;" vertex="1" parent="5cWnqfSXQAcFe98Pt6TE-8">
          <mxGeometry x="5" y="180" width="20" height="20" as="geometry" />
        </mxCell>
        <mxCell id="5cWnqfSXQAcFe98Pt6TE-7" value="" style="swimlane;strokeColor=#457B9D;fontColor=#1D3557;fillColor=#bac8d3;swimlaneFillColor=#f0a30a;" vertex="1" parent="yqqvcgakHu76jTQ3JiNa-2">
          <mxGeometry x="880" y="23" width="30" height="217" as="geometry" />
        </mxCell>
        <mxCell id="WJfm9rB5nMVtpUJINdot-4" value="7" style="ellipse;whiteSpace=wrap;html=1;aspect=fixed;strokeWidth=2;fontFamily=Tahoma;spacingBottom=4;spacingRight=2;strokeColor=#82b366;fontColor=default;fillColor=#d5e8d4;gradientColor=#97d077;" vertex="1" parent="5cWnqfSXQAcFe98Pt6TE-7">
          <mxGeometry x="5" y="130" width="20" height="20" as="geometry" />
        </mxCell>
        <mxCell id="5cWnqfSXQAcFe98Pt6TE-6" value="" style="swimlane;strokeColor=#457B9D;fontColor=#1D3557;fillColor=#bac8d3;swimlaneFillColor=#f0a30a;" vertex="1" parent="yqqvcgakHu76jTQ3JiNa-2">
          <mxGeometry x="750" y="23" width="30" height="217" as="geometry" />
        </mxCell>
        <mxCell id="WJfm9rB5nMVtpUJINdot-2" value="6" style="ellipse;whiteSpace=wrap;html=1;aspect=fixed;strokeWidth=2;fontFamily=Tahoma;spacingBottom=4;spacingRight=2;strokeColor=#82b366;fontColor=default;fillColor=#d5e8d4;gradientColor=#97d077;" vertex="1" parent="5cWnqfSXQAcFe98Pt6TE-6">
          <mxGeometry x="5" y="33" width="20" height="20" as="geometry" />
        </mxCell>
        <mxCell id="5cWnqfSXQAcFe98Pt6TE-5" value="" style="swimlane;strokeColor=#457B9D;fontColor=#1D3557;fillColor=#bac8d3;swimlaneFillColor=#f0a30a;" vertex="1" parent="yqqvcgakHu76jTQ3JiNa-2">
          <mxGeometry x="620" y="23" width="30" height="217" as="geometry" />
        </mxCell>
        <mxCell id="-v0637D8IHnFX7IMpLNk-3" value="5" style="ellipse;whiteSpace=wrap;html=1;aspect=fixed;strokeWidth=2;fontFamily=Tahoma;spacingBottom=4;spacingRight=2;strokeColor=#82b366;fontColor=default;fillColor=#d5e8d4;gradientColor=#97d077;" vertex="1" parent="5cWnqfSXQAcFe98Pt6TE-5">
          <mxGeometry x="5" y="130" width="20" height="20" as="geometry" />
        </mxCell>
        <mxCell id="5cWnqfSXQAcFe98Pt6TE-4" value="" style="swimlane;strokeColor=#457B9D;fontColor=#1D3557;fillColor=#bac8d3;swimlaneFillColor=#f0a30a;" vertex="1" parent="yqqvcgakHu76jTQ3JiNa-2">
          <mxGeometry x="490" y="23" width="30" height="217" as="geometry" />
        </mxCell>
        <mxCell id="-v0637D8IHnFX7IMpLNk-2" value="4" style="ellipse;whiteSpace=wrap;html=1;aspect=fixed;strokeWidth=2;fontFamily=Tahoma;spacingBottom=4;spacingRight=2;strokeColor=#82b366;fontColor=default;fillColor=#d5e8d4;gradientColor=#97d077;" vertex="1" parent="5cWnqfSXQAcFe98Pt6TE-4">
          <mxGeometry x="5" y="130" width="20" height="20" as="geometry" />
        </mxCell>
        <mxCell id="5cWnqfSXQAcFe98Pt6TE-3" value="" style="swimlane;strokeColor=#457B9D;fontColor=#1D3557;fillColor=#bac8d3;swimlaneFillColor=#f0a30a;" vertex="1" parent="yqqvcgakHu76jTQ3JiNa-2">
          <mxGeometry x="360" y="23" width="30" height="217" as="geometry" />
        </mxCell>
        <mxCell id="-v0637D8IHnFX7IMpLNk-1" value="3" style="ellipse;whiteSpace=wrap;html=1;aspect=fixed;strokeWidth=2;fontFamily=Tahoma;spacingBottom=4;spacingRight=2;strokeColor=#82b366;fillColor=#d5e8d4;gradientColor=#97d077;" vertex="1" parent="5cWnqfSXQAcFe98Pt6TE-3">
          <mxGeometry x="5" y="180" width="20" height="20" as="geometry" />
        </mxCell>
        <mxCell id="5cWnqfSXQAcFe98Pt6TE-2" value="" style="swimlane;strokeColor=#457B9D;fontColor=#1D3557;fillColor=#bac8d3;swimlaneFillColor=#f0a30a;" vertex="1" parent="yqqvcgakHu76jTQ3JiNa-2">
          <mxGeometry x="230" y="23" width="30" height="217" as="geometry" />
        </mxCell>
        <mxCell id="-TUVeIYZIIEytc1K3-Gf-1" value="2" style="ellipse;whiteSpace=wrap;html=1;aspect=fixed;strokeWidth=2;fontFamily=Tahoma;spacingBottom=4;spacingRight=2;strokeColor=#82b366;fillColor=#d5e8d4;gradientColor=#97d077;" vertex="1" parent="5cWnqfSXQAcFe98Pt6TE-2">
          <mxGeometry x="5" y="130" width="20" height="20" as="geometry" />
        </mxCell>
        <mxCell id="HMh6thUe7K2DoaszjFps-1" value="" style="swimlane;strokeColor=#457B9D;fontColor=#1D3557;fillColor=#bac8d3;swimlaneFillColor=#f0a30a;" vertex="1" parent="yqqvcgakHu76jTQ3JiNa-2">
          <mxGeometry x="100" y="23" width="30" height="217" as="geometry" />
        </mxCell>
        <mxCell id="yqqvcgakHu76jTQ3JiNa-3" value="요청등록" style="swimlane;whiteSpace=wrap;html=1;strokeColor=#23445d;fillColor=#bac8d3;" vertex="1" parent="yqqvcgakHu76jTQ3JiNa-2">
          <mxGeometry y="23" width="100" height="217" as="geometry" />
        </mxCell>
        <mxCell id="aJ1AgPYpSGj4T-S9qsvX-1" value="" style="endArrow=none;html=1;rounded=0;strokeColor=#000000;fontColor=#1D3557;fillColor=#A8DADC;" edge="1" parent="yqqvcgakHu76jTQ3JiNa-3">
          <mxGeometry width="50" height="50" relative="1" as="geometry">
            <mxPoint y="167" as="sourcePoint" />
            <mxPoint x="1790" y="167" as="targetPoint" />
          </mxGeometry>
        </mxCell>
        <mxCell id="yqqvcgakHu76jTQ3JiNa-74" value="" style="endArrow=none;html=1;rounded=0;strokeColor=#000000;fontColor=#1D3557;fillColor=#A8DADC;" edge="1" parent="yqqvcgakHu76jTQ3JiNa-3">
          <mxGeometry width="50" height="50" relative="1" as="geometry">
            <mxPoint x="-2.5" y="117" as="sourcePoint" />
            <mxPoint x="1790" y="117" as="targetPoint" />
          </mxGeometry>
        </mxCell>
        <mxCell id="4S0rU9pzHwZdG7_fIKwn-1" value="" style="verticalLabelPosition=bottom;verticalAlign=top;html=1;shape=mxgraph.basic.tick;strokeColor=#B20000;fontColor=#ffffff;fillColor=#e51400;" vertex="1" parent="yqqvcgakHu76jTQ3JiNa-3">
          <mxGeometry x="40" y="33" width="20" height="20" as="geometry" />
        </mxCell>
        <mxCell id="yqqvcgakHu76jTQ3JiNa-24" value="요청접수" style="swimlane;whiteSpace=wrap;html=1;strokeColor=#23445d;fillColor=#bac8d3;" vertex="1" parent="yqqvcgakHu76jTQ3JiNa-2">
          <mxGeometry x="130" y="23" width="100" height="217" as="geometry" />
        </mxCell>
        <mxCell id="4S0rU9pzHwZdG7_fIKwn-2" value="" style="verticalLabelPosition=bottom;verticalAlign=top;html=1;shape=mxgraph.basic.tick;strokeColor=#B20000;fontColor=#ffffff;fillColor=#e51400;" vertex="1" parent="yqqvcgakHu76jTQ3JiNa-24">
          <mxGeometry x="40" y="80" width="20" height="20" as="geometry" />
        </mxCell>
        <mxCell id="yqqvcgakHu76jTQ3JiNa-27" value="변경계획" style="swimlane;whiteSpace=wrap;html=1;strokeColor=#23445d;fillColor=#bac8d3;" vertex="1" parent="yqqvcgakHu76jTQ3JiNa-2">
          <mxGeometry x="260" y="23" width="100" height="217" as="geometry" />
        </mxCell>
        <mxCell id="4S0rU9pzHwZdG7_fIKwn-3" value="" style="verticalLabelPosition=bottom;verticalAlign=top;html=1;shape=mxgraph.basic.tick;strokeColor=#B20000;fontColor=#ffffff;fillColor=#e51400;" vertex="1" parent="yqqvcgakHu76jTQ3JiNa-27">
          <mxGeometry x="40" y="133" width="20" height="20" as="geometry" />
        </mxCell>
        <mxCell id="yqqvcgakHu76jTQ3JiNa-30" value="변경승인" style="swimlane;whiteSpace=wrap;html=1;strokeColor=#23445d;fillColor=#bac8d3;" vertex="1" parent="yqqvcgakHu76jTQ3JiNa-2">
          <mxGeometry x="390" y="23" width="100" height="217" as="geometry" />
        </mxCell>
        <mxCell id="4S0rU9pzHwZdG7_fIKwn-4" value="" style="verticalLabelPosition=bottom;verticalAlign=top;html=1;shape=mxgraph.basic.tick;strokeColor=#B20000;fontColor=#ffffff;fillColor=#e51400;" vertex="1" parent="yqqvcgakHu76jTQ3JiNa-30">
          <mxGeometry x="40" y="183" width="20" height="20" as="geometry" />
        </mxCell>
        <mxCell id="yqqvcgakHu76jTQ3JiNa-42" value="배포요청" style="swimlane;whiteSpace=wrap;html=1;strokeColor=#23445d;fillColor=#bac8d3;" vertex="1" parent="yqqvcgakHu76jTQ3JiNa-2">
          <mxGeometry x="910" y="23" width="100" height="217" as="geometry" />
        </mxCell>
        <mxCell id="4S0rU9pzHwZdG7_fIKwn-8" value="" style="verticalLabelPosition=bottom;verticalAlign=top;html=1;shape=mxgraph.basic.tick;strokeColor=#B20000;fontColor=#ffffff;fillColor=#e51400;" vertex="1" parent="yqqvcgakHu76jTQ3JiNa-42">
          <mxGeometry x="40" y="130" width="20" height="20" as="geometry" />
        </mxCell>
        <mxCell id="yqqvcgakHu76jTQ3JiNa-45" value="배포승인" style="swimlane;whiteSpace=wrap;html=1;strokeColor=#23445d;fillColor=#bac8d3;" vertex="1" parent="yqqvcgakHu76jTQ3JiNa-2">
          <mxGeometry x="1040" y="23" width="100" height="217" as="geometry" />
        </mxCell>
        <mxCell id="4S0rU9pzHwZdG7_fIKwn-9" value="" style="verticalLabelPosition=bottom;verticalAlign=top;html=1;shape=mxgraph.basic.tick;strokeColor=#B20000;fontColor=#ffffff;fillColor=#e51400;" vertex="1" parent="yqqvcgakHu76jTQ3JiNa-45">
          <mxGeometry x="40" y="180" width="20" height="20" as="geometry" />
        </mxCell>
        <mxCell id="yqqvcgakHu76jTQ3JiNa-48" value="운영배포" style="swimlane;whiteSpace=wrap;html=1;strokeColor=#23445d;fillColor=#bac8d3;" vertex="1" parent="yqqvcgakHu76jTQ3JiNa-2">
          <mxGeometry x="1170" y="23" width="100" height="217" as="geometry" />
        </mxCell>
        <mxCell id="4S0rU9pzHwZdG7_fIKwn-10" value="" style="verticalLabelPosition=bottom;verticalAlign=top;html=1;shape=mxgraph.basic.tick;strokeColor=#B20000;fontColor=#ffffff;fillColor=#e51400;" vertex="1" parent="yqqvcgakHu76jTQ3JiNa-48">
          <mxGeometry x="40" y="130" width="20" height="20" as="geometry" />
        </mxCell>
        <mxCell id="yqqvcgakHu76jTQ3JiNa-36" value="구현 및 테스트" style="swimlane;whiteSpace=wrap;html=1;strokeColor=#23445d;fillColor=#bac8d3;" vertex="1" parent="yqqvcgakHu76jTQ3JiNa-2">
          <mxGeometry x="650" y="23" width="100" height="217" as="geometry" />
        </mxCell>
        <mxCell id="4S0rU9pzHwZdG7_fIKwn-6" value="" style="verticalLabelPosition=bottom;verticalAlign=top;html=1;shape=mxgraph.basic.tick;strokeColor=#B20000;fontColor=#ffffff;fillColor=#e51400;" vertex="1" parent="yqqvcgakHu76jTQ3JiNa-36">
          <mxGeometry x="40" y="133" width="20" height="20" as="geometry" />
        </mxCell>
        <mxCell id="yqqvcgakHu76jTQ3JiNa-39" value="요청자테스트" style="swimlane;whiteSpace=wrap;html=1;strokeColor=#23445d;fillColor=#bac8d3;" vertex="1" parent="yqqvcgakHu76jTQ3JiNa-2">
          <mxGeometry x="780" y="23" width="100" height="217" as="geometry" />
        </mxCell>
        <mxCell id="4S0rU9pzHwZdG7_fIKwn-7" value="" style="verticalLabelPosition=bottom;verticalAlign=top;html=1;shape=mxgraph.basic.tick;strokeColor=#B20000;fontColor=#ffffff;fillColor=#e51400;" vertex="1" parent="yqqvcgakHu76jTQ3JiNa-39">
          <mxGeometry x="40" y="33" width="20" height="20" as="geometry" />
        </mxCell>
        <mxCell id="yqqvcgakHu76jTQ3JiNa-51" value="배포확인" style="swimlane;whiteSpace=wrap;html=1;strokeColor=#23445d;fillColor=#bac8d3;" vertex="1" parent="yqqvcgakHu76jTQ3JiNa-2">
          <mxGeometry x="1300" y="23" width="100" height="217" as="geometry" />
        </mxCell>
        <mxCell id="4S0rU9pzHwZdG7_fIKwn-11" value="" style="verticalLabelPosition=bottom;verticalAlign=top;html=1;shape=mxgraph.basic.tick;strokeColor=#B20000;fontColor=#ffffff;fillColor=#e51400;" vertex="1" parent="yqqvcgakHu76jTQ3JiNa-51">
          <mxGeometry x="40" y="130" width="20" height="20" as="geometry" />
        </mxCell>
        <mxCell id="yqqvcgakHu76jTQ3JiNa-60" value="만족도조사" style="swimlane;whiteSpace=wrap;html=1;strokeColor=#23445d;fillColor=#bac8d3;startSize=23;" vertex="1" parent="yqqvcgakHu76jTQ3JiNa-2">
          <mxGeometry x="1690" y="23" width="100" height="217" as="geometry" />
        </mxCell>
        <mxCell id="4S0rU9pzHwZdG7_fIKwn-14" value="" style="verticalLabelPosition=bottom;verticalAlign=top;html=1;shape=mxgraph.basic.tick;strokeColor=#B20000;fontColor=#ffffff;fillColor=#e51400;" vertex="1" parent="yqqvcgakHu76jTQ3JiNa-60">
          <mxGeometry x="40" y="33" width="20" height="20" as="geometry" />
        </mxCell>
        <mxCell id="yqqvcgakHu76jTQ3JiNa-54" value="최종확인" style="swimlane;whiteSpace=wrap;html=1;strokeColor=#23445d;fillColor=#bac8d3;" vertex="1" parent="yqqvcgakHu76jTQ3JiNa-2">
          <mxGeometry x="1430" y="23" width="100" height="217" as="geometry" />
        </mxCell>
        <mxCell id="4S0rU9pzHwZdG7_fIKwn-12" value="" style="verticalLabelPosition=bottom;verticalAlign=top;html=1;shape=mxgraph.basic.tick;strokeColor=#B20000;fontColor=#ffffff;fillColor=#e51400;" vertex="1" parent="yqqvcgakHu76jTQ3JiNa-54">
          <mxGeometry x="40" y="83" width="20" height="20" as="geometry" />
        </mxCell>
        <mxCell id="yqqvcgakHu76jTQ3JiNa-57" value="최종결재" style="swimlane;whiteSpace=wrap;html=1;strokeColor=#23445d;fillColor=#bac8d3;startSize=23;" vertex="1" parent="yqqvcgakHu76jTQ3JiNa-2">
          <mxGeometry x="1560" y="23" width="100" height="217" as="geometry" />
        </mxCell>
        <mxCell id="4S0rU9pzHwZdG7_fIKwn-13" value="" style="verticalLabelPosition=bottom;verticalAlign=top;html=1;shape=mxgraph.basic.tick;strokeColor=#B20000;fontColor=#ffffff;fillColor=#e51400;" vertex="1" parent="yqqvcgakHu76jTQ3JiNa-57">
          <mxGeometry x="40" y="177" width="20" height="20" as="geometry" />
        </mxCell>
        <mxCell id="yqqvcgakHu76jTQ3JiNa-33" value="담당자배정" style="swimlane;whiteSpace=wrap;html=1;strokeColor=#23445d;fillColor=#bac8d3;" vertex="1" parent="yqqvcgakHu76jTQ3JiNa-2">
          <mxGeometry x="520" y="23" width="100" height="217" as="geometry" />
        </mxCell>
        <mxCell id="4S0rU9pzHwZdG7_fIKwn-5" value="" style="verticalLabelPosition=bottom;verticalAlign=top;html=1;shape=mxgraph.basic.tick;strokeColor=#B20000;fontColor=#ffffff;fillColor=#e51400;" vertex="1" parent="yqqvcgakHu76jTQ3JiNa-33">
          <mxGeometry x="40" y="133" width="20" height="20" as="geometry" />
        </mxCell>
        <mxCell id="yqqvcgakHu76jTQ3JiNa-11" value="요청자" style="rounded=1;whiteSpace=wrap;html=1;strokeColor=#23445d;fillColor=#bac8d3;" vertex="1" parent="1">
          <mxGeometry x="40" y="-177" width="70" height="26" as="geometry" />
        </mxCell>
        <mxCell id="yqqvcgakHu76jTQ3JiNa-12" value="작업자" style="rounded=1;whiteSpace=wrap;html=1;strokeColor=#23445d;fillColor=#bac8d3;" vertex="1" parent="1">
          <mxGeometry x="40" y="-80" width="70" height="26" as="geometry" />
        </mxCell>
        <mxCell id="yqqvcgakHu76jTQ3JiNa-16" value="승인자" style="rounded=1;whiteSpace=wrap;html=1;strokeColor=#23445d;fillColor=#bac8d3;" vertex="1" parent="1">
          <mxGeometry x="40" y="-30" width="70" height="26" as="geometry" />
        </mxCell>
        <mxCell id="yqqvcgakHu76jTQ3JiNa-18" value="양식" style="swimlane;whiteSpace=wrap;html=1;strokeColor=#b46504;fillColor=#fad7ac;" vertex="1" parent="1">
          <mxGeometry x="570" y="100" width="340" height="498.36" as="geometry" />
        </mxCell>
        <mxCell id="yqqvcgakHu76jTQ3JiNa-19" value="양식" style="swimlane;whiteSpace=wrap;html=1;strokeColor=#b46504;fillColor=#fad7ac;" vertex="1" parent="1">
          <mxGeometry x="220" y="100" width="340" height="498.36" as="geometry" />
        </mxCell>
        <mxCell id="yqqvcgakHu76jTQ3JiNa-20" value="양식" style="swimlane;whiteSpace=wrap;html=1;strokeColor=#b46504;fillColor=#fad7ac;" vertex="1" parent="1">
          <mxGeometry x="920" y="100" width="340" height="498.36" as="geometry" />
        </mxCell>
        <mxCell id="yqqvcgakHu76jTQ3JiNa-72" value="" style="endArrow=none;html=1;rounded=0;strokeColor=#000000;fontColor=#1D3557;fillColor=#A8DADC;" edge="1" parent="1">
          <mxGeometry width="50" height="50" relative="1" as="geometry">
            <mxPoint x="140" y="-140" as="sourcePoint" />
            <mxPoint x="1930" y="-140" as="targetPoint" />
          </mxGeometry>
        </mxCell>
        <mxCell id="aJ1AgPYpSGj4T-S9qsvX-2" value="접수자" style="rounded=1;whiteSpace=wrap;html=1;strokeColor=#23445d;fillColor=#bac8d3;" vertex="1" parent="1">
          <mxGeometry x="40" y="-130" width="70" height="26" as="geometry" />
        </mxCell>
        <mxCell id="eoaIm9-sy1QiZhiq_LHD-1" value="1" style="ellipse;whiteSpace=wrap;html=1;aspect=fixed;strokeWidth=2;fontFamily=Tahoma;spacingBottom=4;spacingRight=2;strokeColor=#82b366;fillColor=#d5e8d4;gradientColor=#97d077;" vertex="1" parent="1">
          <mxGeometry x="245" y="-125" width="20" height="20" as="geometry" />
        </mxCell>
      </root>
    </mxGraphModel>
  </diagram>
</mxfile>
